<svg xmlns="http://www.w3.org/2000/svg"><defs><style/><style/><style/><style/><style/><style/><style/><style/><style/></defs><symbol id="angle-down" viewBox="0 0 13.65 8.8"><title>angle-down</title><path d="M6.83 8.8L0 1.35 1.48 0l5.35 5.84L12.18 0l1.47 1.35L6.83 8.8z"/></symbol><symbol id="angle-up" viewBox="0 0 23.57 16.24"><title>angle-up</title><path class="cls-1" d="M22 16.24l-10.21-13-10.22 13L0 15 11.79 0l11.78 15L22 16.24z"/></symbol><symbol id="back-button" viewBox="0 0 18.92 18.92"><title>back-button</title><path class="cls-1" d="M56.07 2065.6a9.46 9.46 0 1 1 9.46-9.46 9.47 9.47 0 0 1-9.46 9.46zm0-17.42a8 8 0 1 0 8 8 8 8 0 0 0-8-8z" transform="translate(-46.61 -2046.68)"/><path class="cls-1" d="M11 15.17l-5.3-5.3L11 4.56l1.06 1.06-4.24 4.25 4.24 4.24L11 15.17z"/></symbol><symbol id="close-x" viewBox="0 0 20.86 20.86"><title>close-x</title><path class="cls-1" transform="rotate(-45 -858.13 2153.14)" d="M1257.51 1251.07h27.5v2h-27.5z"/><path class="cls-1" transform="rotate(-45 -857.944 2153.202)" d="M1270.26 1238.32h2v27.5h-2z"/></symbol><symbol id="logo-glenvill" viewBox="0 0 113.4 15.58"><title>logo-glenvill</title><path d="M35.11 14.76h7.29v.63h-7.29zM33.45.23v15.16h.62V.86h8.34V.23h-8.96z"/><path d="M35.12 7.23h6.63V6.6h-6.02V2.44h6.68v-.63h-7.29v5.42zM35.12 8.18V13.79h7.29v-.63h-6.68V8.81h6.02v-.63h-6.63zM59.35.23v15.16h.63V.23h-.63zM48.43.23h.62v15.16h-.62zM82.52.23h.62v15.16h-.62zM84.19.23h.62v15.16h-.62zM12.37 4.06l.36-.54-.52-.35a8.72 8.72 0 0 0-2.08-1.15 7 7 0 0 0-2.41-.45 6 6 0 0 0-2.36.46 5.78 5.78 0 0 0-1.89 1.29 6 6 0 0 0-1.26 2 6.73 6.73 0 0 0-.46 2.51 6.47 6.47 0 0 0 .48 2.55 5.74 5.74 0 0 0 3.28 3.2 6.44 6.44 0 0 0 2.37.44 6.75 6.75 0 0 0 2.1-.31 6.46 6.46 0 0 0 1.78-.9V9.15H7.24v.63h3.9v2.69a5.93 5.93 0 0 1-1.35.64 6.2 6.2 0 0 1-1.91.28 5.85 5.85 0 0 1-2.14-.4 5.12 5.12 0 0 1-2.93-2.85 5.9 5.9 0 0 1-.43-2.3 6.11 6.11 0 0 1 .41-2.28 5.35 5.35 0 0 1 1.12-1.77A5.16 5.16 0 0 1 5.6 2.64a5.34 5.34 0 0 1 2.11-.42 6.41 6.41 0 0 1 2.2.41 8.13 8.13 0 0 1 1.93 1.07z"/><path d="M7.25 7.51h4.51v.63H7.25z"/><path d="M13.63 2.18l-.49-.36a12.51 12.51 0 0 0-1.13-.73 8.61 8.61 0 0 0-1.25-.58A7.75 7.75 0 0 0 9.35.13 9.21 9.21 0 0 0 7.73 0a7.85 7.85 0 0 0-2.84.53 7.56 7.56 0 0 0-4.22 4 8.42 8.42 0 0 0 0 6.55 7.38 7.38 0 0 0 1.76 2.44 7.72 7.72 0 0 0 2.51 1.52 8.37 8.37 0 0 0 2.92.52 8.63 8.63 0 0 0 2.94-.48 8.37 8.37 0 0 0 2.4-1.36l.23-.19v-6h-.62v5.73a7.72 7.72 0 0 1-2.23 1.26 7.94 7.94 0 0 1-2.73.44 7.72 7.72 0 0 1-2.7-.48 7.06 7.06 0 0 1-2.31-1.39 6.78 6.78 0 0 1-1.61-2.24 7.79 7.79 0 0 1 0-6 6.93 6.93 0 0 1 3.88-3.69A7.2 7.2 0 0 1 7.73.67a8.63 8.63 0 0 1 1.52.12 7.23 7.23 0 0 1 1.3.35 8.08 8.08 0 0 1 1.16.54c.34.2.68.41 1 .64l.58.4zM77.56.23l-.36.86h-.01l-5.42 12.89.34.81L77.86 1.1l.37-.87h-.67zM76.16.23h-.42l-4.47 10.91L66.77.23h-.68l4.85 11.73.33.81L76.42.23h-.26zM64.26.23l6.38 15.16h.67L64.93.23h-.67zM19.69.23h.62v15.16h-.62zM21.36.23v13.56h7.29v-.63h-6.67V.23h-.62zM21.36 14.76h7.29v.63h-7.29zM90.95.23h.62v15.16h-.62zM92.61.23v13.56h7.29v-.63h-6.67V.23h-.62zM92.61 14.76h7.29v.63h-7.29zM104.44.23h.62v15.16h-.62zM106.11.23v13.56h7.29v-.63h-6.67V.23h-.62zM106.11 14.76h7.29v.63h-7.29zM57.69.23v10.24L50.07.64v1.02l8.24 10.63V.23h-.62zM50.07 4.19v11.2h.63V5l7.61 9.88v-1.02L50.7 3.98l-.63-.81v1.02z"/></symbol><symbol id="logo-white" viewBox="0 0 700.19 106.52"><title>logo-white</title><path class="cls-1" d="M1882.22 432.93c0 12.93.42 15.57 2.5 18.5 1.95 2.5 4.31 3.48 10.43 3.89v1.39h-53.26v-1.39c6.12-.42 8.62-1.39 10.43-3.89 2.09-2.92 2.5-5.42 2.5-18.5V419l-22.81-38c-7.09-11.4-11-14.74-18.36-15.71V364h54v1.39c-4.87.56-7.51 2.92-7.51 6.68 0 3.48 1.39 7 5.15 13.21l15.85 26.28 4.73-7.65c6.26-10.15 9.32-18.91 9.32-26.84 0-6.81-1.81-10.29-6-11.68V364h35.32v1.39c-9.18 1.39-20.72 13.21-35.18 36l-7.11 11.61v19.89zm96.7 14.46c-9.6 8.07-16.13 11.12-23.22 11.12-7.65 0-12.1-4.31-13.91-13.21-6.67 9.32-14 13.21-25 13.21-11.68 0-19.75-6.26-19.75-15.16 0-8.2 5-13.07 20.3-19.47a204.35 204.35 0 0 1 24.47-8.48v-7.23c0-9.46-.56-13.63-1.95-15.85a7.21 7.21 0 0 0-6.26-3.34 10.35 10.35 0 0 0-9.46 5.56c-1.25 2.5-1.39 3.34-2.5 12.1s-6.82 14.36-14.75 14.36a9.35 9.35 0 0 1-9.73-9.73c0-5.84 4-10.85 12.65-15.58 10.71-6.12 26.84-10.29 38.94-10.29 5.15 0 9 1.25 12.24 3.89 4 3.2 5.42 7.37 5.42 15.3v32c0 5.29.14 7.09 1 8.76s2.78 2.92 5.15 2.92c1.67 0 2.92-.42 5.56-1.81zm-37.13-30.32c-12.65 4-16.41 8.48-16.41 19.05 0 8.34 2.78 12.93 8.07 12.93s8.34-4 8.34-10.43v-21.54zm65.91-10.43c5.56-14.74 12-21.28 21-21.28a12.2 12.2 0 0 1 12.52 12.1c0 6.67-4.73 11.68-10.71 11.68a9.93 9.93 0 0 1-6.54-2.36c-1.11-.83-1.11-.83-4-4.87-1.53-1.95-2.78-2.78-4.31-2.78s-3.2 1-4.31 2.92c-2.09 3.75-2.5 7.09-2.5 19.47v17.38c0 14.18 1.25 16 11.12 16.41v1.39h-46.86v-1.39c9.87-.42 11.12-2.23 11.12-16.41v-22.79c0-8.34-.56-11.68-2.78-14.6-1.95-2.64-4.45-3.75-9-4l-.28-1.39c14.88-3.48 19.61-4.87 35.6-10.71v21.28zm65.49 0c5.56-14.74 12-21.28 21-21.28a12.2 12.2 0 0 1 12.52 12.1c0 6.67-4.73 11.68-10.71 11.68a9.93 9.93 0 0 1-6.54-2.36c-1.11-.83-1.11-.83-4-4.87-1.53-1.95-2.78-2.78-4.31-2.78s-3.2 1-4.31 2.92c-2.09 3.75-2.5 7.09-2.5 19.47v17.38c0 14.18 1.25 16 11.12 16.41v1.39h-46.86v-1.39c9.87-.42 11.12-2.23 11.12-16.41v-22.79c0-8.34-.56-11.68-2.78-14.6-1.95-2.64-4.45-3.75-9-4l-.28-1.39c14.88-3.48 19.61-4.87 35.6-10.71v21.28zm112.35 40.74c-9.6 8.07-16.13 11.12-23.22 11.12-7.65 0-12.1-4.31-13.91-13.21-6.67 9.32-14 13.21-25 13.21-11.68 0-19.75-6.26-19.75-15.16 0-8.2 5-13.07 20.3-19.47a204.37 204.37 0 0 1 24.47-8.48v-7.23c0-9.46-.56-13.63-1.95-15.85a7.21 7.21 0 0 0-6.26-3.34 10.35 10.35 0 0 0-9.46 5.56c-1.25 2.5-1.39 3.34-2.5 12.1s-6.82 14.37-14.74 14.37a9.35 9.35 0 0 1-9.73-9.73c0-5.84 4-10.85 12.65-15.58 10.71-6.12 26.84-10.29 38.94-10.29 5.15 0 9 1.25 12.24 3.89 4 3.2 5.42 7.37 5.42 15.3v32c0 5.29.14 7.09 1 8.76s2.78 2.92 5.15 2.92c1.67 0 2.92-.42 5.56-1.81zm-37.13-30.32c-12.65 4-16.41 8.48-16.41 19.05 0 8.34 2.78 12.93 8.07 12.93s8.34-4 8.34-10.43v-21.53zm70.23-53.06c20.86 0 31.43 1.39 39.35 5.15 8.48 4 12.65 9.6 12.65 16.69 0 7.65-4.87 13.63-13.77 16.69-4.87 1.53-10.43 2.36-18.91 2.78 13.77 1.67 19.75 3.06 25.31 5.84 8.9 4.31 13.63 11 13.63 19.33 0 16.27-16.41 26.28-42.69 26.28h-52v-1.39c6.12-.42 8.62-1.39 10.43-3.89 2.09-2.92 2.5-5.42 2.5-18.5v-45.24c0-13.07-.42-15.58-2.5-18.5-1.81-2.5-4.31-3.48-10.43-3.89V364h36.43zm7.51 40.88c8.48 0 11.82-1.25 14.32-5.28 2.36-3.62 3.48-8.07 3.48-14.32 0-7.65-1.53-12.79-4.87-16-2.78-2.64-6.26-3.61-13.21-3.61h-3.34v39.21h3.62zm-3.62 35.46c0 12.38 1.39 14.74 8.62 14.74 11.54 0 16.55-7.37 16.55-24.2 0-9.46-1.81-16.13-5.28-19.75s-7.23-4.59-15.58-4.59h-4.31v33.76zm81.9-25c.14 17.24 7.79 25.87 23.08 25.87 10 0 16.55-3.48 22.25-12.1l1.25.56c-3.06 8.2-5.28 12.1-9.18 16.83-6.4 7.79-15.85 12.1-26.56 12.1-20.86 0-36.71-15.44-36.71-35.6a37.36 37.36 0 0 1 37.82-37.55c11.54 0 21.83 5 28.23 13.77 3.48 4.73 4.87 8.9 5.84 16.13h-46zm21.28-1.67c0-9.32-.28-13.63-1-17.38-1.39-6.26-4-9-8.62-9-7.51 0-11.82 9.46-11.82 26.42h21.41zm59.24-15c9.6-9.87 16.13-13.21 25.31-13.21 6.26 0 11.54 2.09 14.18 5.84 2.36 3.06 3.2 7.09 3.2 14.46v36c-.14 11.4.83 12.93 8.34 13.63v1.39h-39.49v-1.39c5.84-.7 6.67-2.36 6.54-13.63v-26.35c0-11.13-.28-13.63-1.53-16a7.14 7.14 0 0 0-6-3.48c-3.48 0-6.68 1.53-10.57 4.87v40.9c-.14 11.26.7 12.93 6.54 13.63v1.39h-42.28v-1.39c9.87-.42 11.13-2.23 11.13-16.41v-22.81c0-8.34-.56-11.68-2.78-14.6-1.95-2.64-4.45-3.75-9-4l-.28-1.39a298.06 298.06 0 0 0 36.71-10.71v13.21zm94 48.81c-6.67 7.65-13.49 11.12-21.14 11.12-14.6 0-25.31-13.63-25.31-32.26 0-22.81 16.83-40.88 37.82-40.88 3.2 0 4.87.42 8.62 1.81v-5.42c0-8.34-.56-11.54-2.78-14.46-1.95-2.78-4.45-3.89-9-4l-.28-1.53a314 314 0 0 0 36.71-9.74v77.74c0 13.63 1.53 16.13 10.29 16.83V448c-13.49 3.62-19.19 5.42-34.9 10.57V447.4zm0-52.43c0-4.73-2.64-7.79-7-7.79-8.76 0-13.49 12.38-13.49 35.18 0 19.33 3.61 27.4 12 27.4 3.34 0 5.28-1.11 8.48-4.73V395z" transform="translate(-1813.66 -352)"/></symbol><symbol id="logo-with-tag" viewBox="0 0 187.07 49.54"><title>logo-with-tag</title><path d="M28.72 36.75a5.37 5.37 0 0 1 3.46 1.26 5 5 0 0 1 0 7.8 5.57 5.57 0 0 1-7 0 5 5 0 0 1 0-7.8 5.64 5.64 0 0 1 3.54-1.26zm-.1.2a1.65 1.65 0 0 0-1.26.57q-.89 1-.89 4.4a10.88 10.88 0 0 0 .51 3.78 1.85 1.85 0 0 0 .74.92 1.8 1.8 0 0 0 2.23-.31q.89-1 .89-4.34a11 11 0 0 0-.5-3.84 1.9 1.9 0 0 0-.68-.87 1.8 1.8 0 0 0-1.04-.32z"/><path d="M38.19 40.64a8.64 8.64 0 0 1 .86-.78 3 3 0 0 1 1.86-.64 1.76 1.76 0 0 1 1.52.63 2.69 2.69 0 0 1 .34 1.56v4.57a.77.77 0 0 0 .87.68v.15h-4.22v-.15a.65.65 0 0 0 .61-.36 4.12 4.12 0 0 0 .09-1.11v-2.81a10.73 10.73 0 0 0-.05-1.39.81.81 0 0 0-.34-.57.77.77 0 0 0-.42-.13 1.79 1.79 0 0 0-1.13.52v4.39a4.12 4.12 0 0 0 .09 1.11.66.66 0 0 0 .61.36v.15h-4.52v-.15a1.29 1.29 0 0 0 1-.33 1.35 1.35 0 0 0 .2-.68v-3.19a5.58 5.58 0 0 0-.09-1.15 1.12 1.12 0 0 0-1.18-.84v-.15a34.9 34.9 0 0 0 3.92-1.15v1.42zM51.24 39.43h1.88l-.37.7h-1.5v4.29a2 2 0 0 0 .25 1.16 1.13 1.13 0 0 0 1 .41 2.75 2.75 0 0 0 .86-.17l.07.12a10.16 10.16 0 0 1-.92.6 3.6 3.6 0 0 1-1.74.51 2.24 2.24 0 0 1-1.48-.48 1.61 1.61 0 0 1-.52-.78 4.58 4.58 0 0 1-.14-1.23v-4.45H46.8a10.93 10.93 0 0 0 2.6-1.66 10.69 10.69 0 0 0 1.86-2.06v3z"/><path d="M56.85 40.71a13.27 13.27 0 0 1 1.09-.82 3.44 3.44 0 0 1 1.9-.66 1.5 1.5 0 0 1 1.24.51 1.52 1.52 0 0 1 .32.68 4.92 4.92 0 0 1 .07.9v4.66a.77.77 0 0 0 .87.68v.15h-4.22v-.15a.66.66 0 0 0 .61-.36 4.18 4.18 0 0 0 .09-1.11v-3.55a1.8 1.8 0 0 0-.19-1 .75.75 0 0 0-.64-.33 1.89 1.89 0 0 0-1.16.57v4.32a4.12 4.12 0 0 0 .09 1.11.66.66 0 0 0 .61.36v.15h-4.52v-.15a1.29 1.29 0 0 0 1-.33 1.35 1.35 0 0 0 .2-.68V38.8a5.58 5.58 0 0 0-.09-1.15 1.12 1.12 0 0 0-1.18-.84v-.15a31.43 31.43 0 0 0 3.92-1.05v5.06zM70.62 42.42h-4.93q0 2.78 2.48 2.78a2.74 2.74 0 0 0 1.6-.46 3.21 3.21 0 0 0 .78-.85l.14.07a6.48 6.48 0 0 1-1 1.8 3.49 3.49 0 0 1-2.85 1.3 3.84 3.84 0 0 1-2.87-1.17 3.65 3.65 0 0 1-1.05-2.65 3.8 3.8 0 0 1 1.38-3 4 4 0 0 1 2.67-1 3.8 3.8 0 0 1 2.06.57 3.35 3.35 0 0 1 1.34 1.6 4.14 4.14 0 0 1 .25 1.01zm-2.65-.17a10.77 10.77 0 0 0-.1-1.8 1 1 0 0 0-.93-1q-.84 0-1.13 1.37a7.1 7.1 0 0 0-.13 1.45h2.29zM82.47 42.42h-4.93q0 2.78 2.48 2.78a2.74 2.74 0 0 0 1.6-.46 3.21 3.21 0 0 0 .78-.85l.14.07a6.48 6.48 0 0 1-1 1.8 3.49 3.49 0 0 1-2.85 1.3 3.84 3.84 0 0 1-2.87-1.17 3.65 3.65 0 0 1-1.05-2.65 3.8 3.8 0 0 1 1.38-3 4 4 0 0 1 2.67-1 3.8 3.8 0 0 1 2.06.57 3.35 3.35 0 0 1 1.34 1.6 4.14 4.14 0 0 1 .25 1.01zm-2.62-.22a10.77 10.77 0 0 0-.1-1.8 1 1 0 0 0-.93-1q-.84 0-1.13 1.37a7.1 7.1 0 0 0-.13 1.45h2.29zM88.01 47.06v-1.19a3 3 0 0 1-2.27 1.19 2.36 2.36 0 0 1-1.64-.65 3.26 3.26 0 0 1-.85-1.39 4.52 4.52 0 0 1-.21-1.41 4.34 4.34 0 0 1 1.31-3.23 3.79 3.79 0 0 1 2.74-1.16 2.56 2.56 0 0 1 .93.2v-.57a5 5 0 0 0-.09-1.15 1.12 1.12 0 0 0-1.18-.84v-.15a30 30 0 0 0 3.92-1.05v8.32a3.62 3.62 0 0 0 .17 1.37.75.75 0 0 0 .49.37 2.89 2.89 0 0 0 .44.07v.15q-1.8.46-3.76 1.12zm0-1.44v-5.36a.82.82 0 0 0-.25-.65.75.75 0 0 0-.5-.18.93.93 0 0 0-.57.2 1.34 1.34 0 0 0-.41.54 7.59 7.59 0 0 0-.47 3 6.72 6.72 0 0 0 .25 2.13 1.06 1.06 0 0 0 1 .81 1 1 0 0 0 .65-.24 2.05 2.05 0 0 0 .3-.25zM93.94 43.14a.74.74 0 0 0-.33.57.64.64 0 0 0 .46.65 4.15 4.15 0 0 0 1.31.15h2a3 3 0 0 1 1.89.55 1.93 1.93 0 0 1 .84 1.61 2.1 2.1 0 0 1-.28 1 2.76 2.76 0 0 1-.75.87 5 5 0 0 1-1.62.78 7.22 7.22 0 0 1-2 .28 7.32 7.32 0 0 1-2.22-.31 1.79 1.79 0 0 1-.79-.47 1 1 0 0 1-.29-.69q0-.85 1.54-1.39a2.61 2.61 0 0 1-1-.43 1.32 1.32 0 0 1-.6-1.09q0-1.16 1.72-2.09a2.36 2.36 0 0 1-.85-.44 1.58 1.58 0 0 1-.57-1.23 1.64 1.64 0 0 1 .61-1.21 4.36 4.36 0 0 1 2.78-1v-.28a2.87 2.87 0 0 1 .35-1.5 1.65 1.65 0 0 1 1.49-.84 1.36 1.36 0 0 1 .94.35 1.14 1.14 0 0 1 .39.88 1.18 1.18 0 0 1-.28.8 1 1 0 0 1-.78.36 1.24 1.24 0 0 1-.88-.46 1 1 0 0 0-.57-.39q-.5 0-.5.94v.09h.14a4.18 4.18 0 0 1 1.81.41 1.84 1.84 0 0 1 1.29 1.6 1.57 1.57 0 0 1-.23.79 2.09 2.09 0 0 1-.61.66 4.4 4.4 0 0 1-2.58.73 5.89 5.89 0 0 1-1.83-.25zm.08 3.6a1 1 0 0 0-.44.84 1.43 1.43 0 0 0 .92 1.32 3.89 3.89 0 0 0 1.76.38 2.9 2.9 0 0 0 1.65-.42 1.15 1.15 0 0 0 .59-1 .91.91 0 0 0-.45-.81 2.25 2.25 0 0 0-1.18-.27H95.2a7.9 7.9 0 0 1-1.18-.04zm1.66-7.32q-.9 0-.9 1.76a3.87 3.87 0 0 0 .25 1.58.77.77 0 0 0 .76.47.73.73 0 0 0 .73-.46 3.6 3.6 0 0 0 .18-1.32q0-2.03-1.02-2.03zM107.92 42.42h-4.93q0 2.78 2.48 2.78a2.74 2.74 0 0 0 1.6-.46 3.2 3.2 0 0 0 .78-.85l.14.07a6.49 6.49 0 0 1-1 1.8 3.49 3.49 0 0 1-2.85 1.3 3.84 3.84 0 0 1-2.87-1.17 3.65 3.65 0 0 1-1.05-2.65 3.8 3.8 0 0 1 1.38-3 4 4 0 0 1 2.67-1 3.81 3.81 0 0 1 2.06.57 3.34 3.34 0 0 1 1.34 1.6 4.12 4.12 0 0 1 .25 1.01zm-2.65-.17a10.83 10.83 0 0 0-.1-1.8 1 1 0 0 0-.93-1q-.84 0-1.13 1.37a7.14 7.14 0 0 0-.13 1.45h2.29zM116.24 39.2a4.09 4.09 0 0 1 2.7 1 3.84 3.84 0 0 1 0 5.86 4.33 4.33 0 0 1-5.51 0 3.67 3.67 0 0 1-1.36-2.92 3.63 3.63 0 0 1 1.36-2.94 4.28 4.28 0 0 1 2.81-1zm-.07.2a.91.91 0 0 0-.8.48 7.64 7.64 0 0 0-.41 3.25 12.56 12.56 0 0 0 .24 2.83 1.27 1.27 0 0 0 .37.64.9.9 0 0 0 .62.24.92.92 0 0 0 .82-.48 7.42 7.42 0 0 0 .41-3.19 12.57 12.57 0 0 0-.24-2.89 1 1 0 0 0-1.01-.86zM126.08 39.41l-.4.7h-1.24v4.85a6.73 6.73 0 0 0 .06 1.08.73.73 0 0 0 .45.57 2.9 2.9 0 0 0 .85.11v.15h-5.18v-.15a1.29 1.29 0 0 0 1-.33 1.35 1.35 0 0 0 .2-.68v-5.6h-.87l1.69-2.15a10.88 10.88 0 0 1 1.69-1.82 2.14 2.14 0 0 1 1.33-.39 3.14 3.14 0 0 1 1.75.47 1.68 1.68 0 0 1 .89 1.44 1.05 1.05 0 0 1-.3.76 1.15 1.15 0 0 1-.86.33 1.29 1.29 0 0 1-.78-.25 1.17 1.17 0 0 1-.46-.77 6.32 6.32 0 0 1-.06-.7 2.13 2.13 0 0 0-.14-.81.47.47 0 0 0-.43-.27.73.73 0 0 0-.62.4 2.08 2.08 0 0 0-.22 1.08v2h1.64zM138.06 46.86l-3.1-5v2.47a10.41 10.41 0 0 0 .07 1.54.9.9 0 0 0 .58.73 3 3 0 0 0 .73.13v.15h-5.71v-.15a1.45 1.45 0 0 0 1.12-.42 1.64 1.64 0 0 0 .25-.86V39.5a10.46 10.46 0 0 0-.07-1.54.9.9 0 0 0-.58-.73 3 3 0 0 0-.73-.13v-.15h5.71v.15a1.47 1.47 0 0 0-1.12.41 1.69 1.69 0 0 0-.25.86v3.37q.6-.62 1.55-1.73a6.26 6.26 0 0 0 .86-1.23 2.48 2.48 0 0 0 .29-1.11.63.63 0 0 0-.28-.57v-.15h4v.15a7.55 7.55 0 0 0-2.54 1.1 11.4 11.4 0 0 0-2 1.67l2.13 3.19 1.34 2a3.31 3.31 0 0 0 2.46 1.69v.15h-4.72zM150.2 42.42h-4.93q0 2.78 2.48 2.78a2.74 2.74 0 0 0 1.6-.46 3.2 3.2 0 0 0 .78-.85l.14.07a6.49 6.49 0 0 1-1 1.8 3.49 3.49 0 0 1-2.85 1.3 3.84 3.84 0 0 1-2.87-1.17 3.65 3.65 0 0 1-1.05-2.65 3.8 3.8 0 0 1 1.38-3 4 4 0 0 1 2.67-1 3.81 3.81 0 0 1 2.06.57 3.34 3.34 0 0 1 1.34 1.6 4.12 4.12 0 0 1 .25 1.01zm-2.65-.17a10.83 10.83 0 0 0-.1-1.8 1 1 0 0 0-.93-1q-.84 0-1.13 1.37a7.14 7.14 0 0 0-.13 1.45h2.29zM156.06 44.03l1.14-2.43a9.12 9.12 0 0 0-.76-1.49 1.16 1.16 0 0 0-.46-.44 2.06 2.06 0 0 0-.43-.1v-.15h4.69v.15a.62.62 0 0 0-.63.63 2.37 2.37 0 0 0 .21.79l.42.94 1 2.1q.41-.87.58-1.28a4.93 4.93 0 0 0 .44-1.93 1.55 1.55 0 0 0-.23-.92 1 1 0 0 0-.54-.33v-.15h3.36v.15q-1.42.35-2.94 3.5l-2 4.19-2.54-5.47-2.57 5.47-2.89-5.9a7.1 7.1 0 0 0-.68-1.21 1.51 1.51 0 0 0-.65-.52 2 2 0 0 0-.41-.07v-.15h4.61v.15a.43.43 0 0 0-.42.46 2.76 2.76 0 0 0 .33 1zM99.21 27.03v.36m-8.95-4.72c0 1.67-.84 2.72-2.18 2.72s-2.11-1.2-2.11-3.38c0-2.76 1-3.92 4.29-5v5.63zm9.48 2a2.88 2.88 0 0 1-1.45.47 1.38 1.38 0 0 1-1.34-.76 5.09 5.09 0 0 1-.25-2.29v-8.35c0-2.07-.36-3.16-1.42-4a4.75 4.75 0 0 0-3.2-1 22.83 22.83 0 0 0-10.17 2.69c-2.25 1.24-3.31 2.54-3.31 4.07a2.44 2.44 0 0 0 2.54 2.54c2.07 0 3.52-1.45 3.85-3.74s.33-2.51.65-3.16a2.7 2.7 0 0 1 2.47-1.45 1.88 1.88 0 0 1 1.63.87c.36.58.51 1.67.51 4.14v1.89a53.37 53.37 0 0 0-6.39 2.22c-4 1.67-5.3 2.94-5.3 5.09 0 2.32 2.11 4 5.16 4a7.3 7.3 0 0 0 6.54-3.45c.47 2.32 1.63 3.45 3.63 3.45s3.56-.8 6.07-2.91zM70.57 8.72a61.91 61.91 0 0 1-9.3 2.8l.07.36a2.77 2.77 0 0 1 2.36 1.05c.58.76.73 1.63.73 3.81v6c0 3.71-.33 4.18-2.91 4.29v.36h12.24v-.36c-2.58-.11-2.91-.58-2.91-4.29V18.2c0-3.23.11-4.1.65-5.09a1.31 1.31 0 0 1 1.13-.76 1.45 1.45 0 0 1 1.13.73 4.42 4.42 0 0 0 1.05 1.27 2.59 2.59 0 0 0 1.71.62 2.89 2.89 0 0 0 2.8-3.05 3.19 3.19 0 0 0-3.27-3.16c-2.36 0-4 1.71-5.48 5.56V8.76zm-17.29 0a61.92 61.92 0 0 1-9.3 2.8l.07.36a2.77 2.77 0 0 1 2.36 1.05c.58.76.73 1.63.73 3.81v6c0 3.71-.33 4.18-2.91 4.29v.36h12.24v-.36c-2.58-.11-2.91-.58-2.91-4.29V18.2c0-3.23.11-4.1.65-5.09a1.31 1.31 0 0 1 1.13-.76 1.45 1.45 0 0 1 1.13.73 4.42 4.42 0 0 0 1.05 1.27 2.59 2.59 0 0 0 1.71.62 2.89 2.89 0 0 0 2.8-3.05 3.19 3.19 0 0 0-3.27-3.16c-2.36 0-4 1.71-5.48 5.56V8.76zM35.95 22.63c0 1.67-.84 2.72-2.18 2.72s-2.11-1.2-2.11-3.38c0-2.76 1-3.92 4.29-5v5.63zm9.48 2a2.88 2.88 0 0 1-1.45.47 1.38 1.38 0 0 1-1.34-.76 5.09 5.09 0 0 1-.25-2.29V13.7c0-2.07-.36-3.16-1.42-4a4.76 4.76 0 0 0-3.2-1 22.83 22.83 0 0 0-10.17 2.69c-2.25 1.24-3.31 2.54-3.31 4.07A2.44 2.44 0 0 0 26.83 18c2.07 0 3.52-1.45 3.85-3.74s.33-2.51.65-3.16a2.7 2.7 0 0 1 2.47-1.45 1.88 1.88 0 0 1 1.63.87c.36.58.51 1.67.51 4.14v1.89a53.41 53.41 0 0 0-6.39 2.22c-4 1.67-5.3 2.94-5.3 5.09 0 2.32 2.11 4 5.16 4a7.3 7.3 0 0 0 6.54-3.45c.47 2.32 1.63 3.45 3.63 3.45s3.56-.8 6.07-2.91zM17.9 15.91l1.85-3.05c3.78-6 6.79-9 9.19-9.41V3.2h-9.23v.36c1.09.36 1.56 1.27 1.56 3.05a13.66 13.66 0 0 1-2.43 7l-1.24 2-4.14-6.87a6.85 6.85 0 0 1-1.34-3.45c0-1 .69-1.6 2-1.74V3.2H.03v.36c1.93.25 2.94 1.13 4.79 4.1l6 9.92v3.62c0 3.41-.11 4.07-.65 4.83s-1.13.91-2.72 1v.36h13.91v-.36c-1.6-.11-2.22-.36-2.72-1s-.65-1.45-.65-4.83v-5.19z"/><path d="M177.95 24.32a2.67 2.67 0 0 1-2.22 1.24c-2.18 0-3.13-2.11-3.13-7.16 0-6 1.24-9.2 3.53-9.2a1.8 1.8 0 0 1 1.82 2v13.08zm0 3.53c4.11-1.34 5.6-1.82 9.12-2.76v-.36c-2.29-.18-2.69-.84-2.69-4.4V0a82.07 82.07 0 0 1-9.6 2.54l.07.4a2.59 2.59 0 0 1 2.36 1.05c.58.76.73 1.6.73 3.78V9.2a5.46 5.46 0 0 0-2.25-.47c-5.49 0-9.89 4.73-9.89 10.69 0 4.87 2.8 8.43 6.61 8.43 2 0 3.78-.91 5.52-2.91v2.91zM152.18 8.73a77.93 77.93 0 0 1-9.6 2.8l.07.36a2.77 2.77 0 0 1 2.36 1.05c.58.76.73 1.64.73 3.82v6c0 3.71-.33 4.18-2.91 4.29v.36h11v-.36c-1.53-.18-1.74-.62-1.71-3.56V12.8a4.22 4.22 0 0 1 2.76-1.27 1.87 1.87 0 0 1 1.56.91c.33.62.4 1.27.4 4.18v6.87c0 2.94-.18 3.38-1.71 3.56v.36h10.32v-.36c-2-.18-2.22-.58-2.18-3.56v-9.41c0-1.93-.22-3-.84-3.78a4.43 4.43 0 0 0-3.71-1.53c-2.4 0-4.11.87-6.62 3.45V8.77zm-21.26 7.38c0-4.43 1.13-6.91 3.09-6.91 1.2 0 1.89.73 2.25 2.36a24.85 24.85 0 0 1 .25 4.54h-5.6zm12.07.44a8.12 8.12 0 0 0-1.53-4.22 9 9 0 0 0-7.38-3.6 9.77 9.77 0 0 0-9.89 9.81 9.28 9.28 0 0 0 9.6 9.3 8.8 8.8 0 0 0 6.94-3.16 13.32 13.32 0 0 0 2.4-4.4l-.33-.15a6.27 6.27 0 0 1-5.82 3.16c-4 0-6-2.25-6-6.76h12zm-33.26-2.29h1.12c2.18 0 3.2.29 4.07 1.2s1.38 2.69 1.38 5.16c0 4.4-1.31 6.32-4.33 6.32-1.89 0-2.25-.62-2.25-3.85v-8.83zm0-.44V3.57h.87c1.82 0 2.73.25 3.45.94s1.27 2.18 1.27 4.18a6.56 6.56 0 0 1-.91 3.74c-.65 1.05-1.53 1.38-3.74 1.38h-.94zM99.19 3.13v.36c1.6.11 2.25.36 2.73 1s.65 1.42.65 4.83V21.2c0 3.42-.11 4.07-.65 4.83s-1.13.91-2.73 1v.36h13.59c6.87 0 11.16-2.62 11.16-6.87 0-2.18-1.24-3.93-3.56-5.05-1.45-.73-3-1.09-6.61-1.53a19.31 19.31 0 0 0 4.94-.73c2.33-.8 3.6-2.36 3.6-4.36s-1.09-3.31-3.31-4.36-4.83-1.34-10.29-1.34h-9.52z"/></symbol><symbol id="logo" viewBox="0 0 112.57 16.76"><title>logo</title><path d="M59.7 16.26v.22m-5.38-2.84a1.39 1.39 0 0 1-1.31 1.64c-.83 0-1.27-.72-1.27-2 0-1.66.59-2.36 2.58-3v3.4zm5.71 1.22a1.73 1.73 0 0 1-.87.28.83.83 0 0 1-.81-.46 3.06 3.06 0 0 1-.15-1.38v-5a2.68 2.68 0 0 0-.85-2.4 2.86 2.86 0 0 0-1.92-.61 13.74 13.74 0 0 0-6.12 1.62c-1.36.74-2 1.53-2 2.45a1.47 1.47 0 0 0 1.53 1.53 2.34 2.34 0 0 0 2.32-2.25 5 5 0 0 1 .39-1.9 1.63 1.63 0 0 1 1.49-.87 1.13 1.13 0 0 1 1 .52 5.35 5.35 0 0 1 .31 2.49v1.14a32.12 32.12 0 0 0-3.85 1.33c-2.4 1-3.19 1.77-3.19 3.06s1.27 2.38 3.1 2.38a4.4 4.4 0 0 0 3.93-2.08c.28 1.4 1 2.08 2.19 2.08s2.14-.48 3.65-1.75zm-17.55-9.6a37.26 37.26 0 0 1-5.6 1.68v.22a1.67 1.67 0 0 1 1.42.63 3.5 3.5 0 0 1 .44 2.3v3.59c0 2.23-.2 2.51-1.75 2.58v.22h7.37v-.22c-1.55-.07-1.75-.35-1.75-2.58v-2.73c0-1.95.07-2.47.39-3.06a.79.79 0 0 1 .68-.46.87.87 0 0 1 .68.44 2.66 2.66 0 0 0 .63.77 1.56 1.56 0 0 0 1 .37 1.74 1.74 0 0 0 1.68-1.84 1.92 1.92 0 0 0-2-1.9c-1.42 0-2.43 1-3.3 3.34V5.27zm-10.41 0a37.26 37.26 0 0 1-5.6 1.68v.22a1.66 1.66 0 0 1 1.42.63 3.5 3.5 0 0 1 .44 2.3v3.59c0 2.23-.2 2.51-1.75 2.58v.22h7.37v-.22c-1.55-.07-1.75-.35-1.75-2.58v-2.73c0-1.95.07-2.47.39-3.06a.79.79 0 0 1 .68-.46.87.87 0 0 1 .68.44 2.66 2.66 0 0 0 .63.77 1.56 1.56 0 0 0 1 .37 1.74 1.74 0 0 0 1.68-1.84 1.92 1.92 0 0 0-2-1.9c-1.42 0-2.43 1-3.3 3.34V5.27zm-10.43 8.42a1.39 1.39 0 0 1-1.31 1.64c-.83 0-1.27-.72-1.27-2 0-1.66.59-2.36 2.58-3v3.36zm5.71 1.22a1.73 1.73 0 0 1-.87.28.83.83 0 0 1-.81-.46 3.06 3.06 0 0 1-.15-1.38v-5a2.68 2.68 0 0 0-.85-2.4 2.86 2.86 0 0 0-1.92-.61 13.74 13.74 0 0 0-6.12 1.62c-1.36.74-2 1.53-2 2.45a1.47 1.47 0 0 0 1.53 1.53 2.34 2.34 0 0 0 2.32-2.25 5 5 0 0 1 .39-1.9 1.63 1.63 0 0 1 1.49-.87 1.13 1.13 0 0 1 1 .52 5.35 5.35 0 0 1 .31 2.49v1.14a32.14 32.14 0 0 0-3.85 1.33c-2.4 1-3.19 1.77-3.19 3.06s1.27 2.38 3.1 2.38a4.4 4.4 0 0 0 3.93-2.08c.28 1.4 1 2.08 2.19 2.08s2.14-.48 3.65-1.75zM10.78 9.65l1.11-1.84c2.27-3.58 4.09-5.44 5.53-5.66v-.22h-5.55v.22c.66.22.94.77.94 1.84a8.22 8.22 0 0 1-1.46 4.22l-.74 1.2-2.45-4.17a4.12 4.12 0 0 1-.81-2.08 1.1 1.1 0 0 1 1.18-1v-.22H0v.22c1.16.15 1.77.68 2.89 2.47l3.58 6v2.19c0 2.05-.07 2.45-.39 2.91a1.89 1.89 0 0 1-1.64.61v.22h8.37v-.22a1.92 1.92 0 0 1-1.65-.66c-.33-.46-.39-.87-.39-2.91V9.64z"/><path d="M107.08 14.63a1.61 1.61 0 0 1-1.33.74c-1.31 0-1.88-1.27-1.88-4.31 0-3.59.74-5.53 2.12-5.53a1.08 1.08 0 0 1 1.09 1.22v7.87zm0 2.12c2.47-.81 3.37-1.09 5.49-1.66v-.22c-1.38-.11-1.62-.5-1.62-2.65V-.01a49.39 49.39 0 0 1-5.77 1.53v.24a1.56 1.56 0 0 1 1.42.63 3.43 3.43 0 0 1 .44 2.27v.85a3.28 3.28 0 0 0-1.36-.28 6.17 6.17 0 0 0-5.95 6.43c0 2.93 1.68 5.07 4 5.07a4.33 4.33 0 0 0 3.32-1.75v1.75zM91.57 5.25a46.9 46.9 0 0 1-5.77 1.68v.22a1.67 1.67 0 0 1 1.42.63 3.5 3.5 0 0 1 .44 2.3v3.6c0 2.23-.2 2.52-1.75 2.58v.22h6.65v-.22c-.92-.11-1-.37-1-2.14V7.68a2.54 2.54 0 0 1 1.66-.77 1.12 1.12 0 0 1 .94.55c.2.37.24.77.24 2.52v4.13c0 1.77-.11 2-1 2.14v.22h6.21v-.22c-1.18-.11-1.33-.35-1.31-2.14V8.45a3.53 3.53 0 0 0-.5-2.27 2.67 2.67 0 0 0-2.23-.92c-1.44 0-2.47.52-4 2.08V5.26zM78.78 9.68c0-2.67.68-4.16 1.86-4.16.72 0 1.14.44 1.36 1.42a15 15 0 0 1 .16 2.74h-3.37zm7.26.26a4.89 4.89 0 0 0-.92-2.54 5.4 5.4 0 0 0-4.44-2.17 5.88 5.88 0 0 0-5.95 5.91 5.58 5.58 0 0 0 5.77 5.6 5.29 5.29 0 0 0 4.18-1.9 8 8 0 0 0 1.44-2.65l-.2-.09a3.77 3.77 0 0 1-3.5 1.9c-2.41 0-3.61-1.36-3.63-4.07h7.24zm-20-1.38h.68a3 3 0 0 1 2.45.72 4.52 4.52 0 0 1 .83 3.11c0 2.65-.79 3.81-2.6 3.81-1.14 0-1.36-.37-1.36-2.32V8.57zm0-.26V2.13h.52a2.72 2.72 0 0 1 2.08.57 3.33 3.33 0 0 1 .77 2.52 4 4 0 0 1-.55 2.25c-.39.63-.92.83-2.25.83h-.57zM59.7 1.87v.22a1.9 1.9 0 0 1 1.64.61c.33.46.39.85.39 2.91v7.07c0 2.06-.07 2.45-.39 2.91a1.9 1.9 0 0 1-1.64.61v.22h8.18c4.13 0 6.71-1.57 6.71-4.13a3.33 3.33 0 0 0-2.14-3 11.56 11.56 0 0 0-4-.92 11.62 11.62 0 0 0 3-.44 2.79 2.79 0 0 0 2.17-2.62 2.9 2.9 0 0 0-2-2.62c-1.25-.59-2.91-.81-6.19-.81H59.7z"/></symbol><symbol id="quotes" viewBox="0 0 31.7 31.7"><title>quotes</title><circle cx="15.85" cy="15.85" r="15.85"/><path class="cls-1" d="M2488.86 3112.56c0-4.42 3.29-8.37 9-10.17l.31.62c-4 2.05-6 5.29-6.16 7.24l.21.1a3.1 3.1 0 0 1 1.54-.36 3.54 3.54 0 0 1 3.49 3.7 3.91 3.91 0 0 1-3.85 4c-2.79.01-4.54-2.1-4.54-5.13zM2498.21 3112.56c0-4.42 3.29-8.37 9-10.17l.31.62c-4 2.05-6 5.29-6.16 7.24l.21.1a3.1 3.1 0 0 1 1.54-.36 3.54 3.54 0 0 1 3.49 3.7 3.91 3.91 0 0 1-3.85 4c-2.75.01-4.54-2.1-4.54-5.13z" transform="translate(-2482.71 -3094.75)"/></symbol><symbol id="select-angle-copy" viewBox="0 0 8.35 6.37"><title>select-angle</title><path class="cls-1" d="M4.17 6.37L0 .58.81 0l3.36 4.66L7.54 0l.81.58-4.18 5.79z"/></symbol><symbol id="select-angle" viewBox="0 0 8.35 6.37"><title>select-angle</title><path class="cls-1" d="M4.17 6.37L0 .58.81 0l3.36 4.66L7.54 0l.81.58-4.18 5.79z"/></symbol><symbol id="social-facebook" viewBox="0 0 18.96 18.96"><title>social-facebook</title><path class="cls-1" d="M643.52 1750.39a9.48 9.48 0 1 0 9.48 9.48 9.48 9.48 0 0 0-9.48-9.48zm3.62 4.83h-1.31a1 1 0 0 0-1.23 1.21v1.57h2.45v2.48h-2.45v6.35H642v-6.35h-2.14V1758H642v-1.83a3 3 0 0 1 3.19-3.27h1.91v2.31z" transform="translate(-634.04 -1750.39)"/></symbol><symbol id="social-instagram" viewBox="0 0 15.58 15.58"><title>social-instagram</title><ellipse class="cls-1" cx="7.8" cy="7.77" rx="2.31" ry="2.23"/><path class="cls-1" d="M7985.65 4646.79a3.57 3.57 0 0 1-7.14 0 3.36 3.36 0 0 1 .15-1h-1.05v4.85a.46.46 0 0 0 .46.46h8a.46.46 0 0 0 .46-.46v-4.85h-1a3.36 3.36 0 0 1 .12 1zM7984.7 4644.5h1.3a.52.52 0 0 0 .52-.52v-1.24a.52.52 0 0 0-.52-.52h-1.3a.52.52 0 0 0-.52.52v1.26a.52.52 0 0 0 .52.5z" transform="translate(-7974.28 -4638.9)"/><path class="cls-1" d="M7982.07 4638.9a7.79 7.79 0 1 0 7.79 7.79 7.79 7.79 0 0 0-7.79-7.79zm4.27 13.53h-8.53a1.44 1.44 0 0 1-1.47-1.47v-8.53a1.44 1.44 0 0 1 1.47-1.47h8.53a1.44 1.44 0 0 1 1.47 1.47v8.57a1.44 1.44 0 0 1-1.47 1.43z" transform="translate(-7974.28 -4638.9)"/></symbol><symbol id="telsa" viewBox="0 0 59.5 59.5"><title>telsa</title><path d="M29.8 0C13.3 0 0 13.3 0 29.8c0 16.4 13.3 29.8 29.8 29.8s29.8-13.3 29.8-29.8C59.5 13.3 46.2 0 29.8 0zm-15 11.8c4-1.2 8.2-1.9 12.4-1.9h4.9c4.2 0 8.4.7 12.5 1.9l-.9 1.3c-3.8-1.2-7.7-1.8-11.6-1.9h-4.8c-3.9 0-7.9.7-11.6 1.9l-.9-1.3zm3.7 34.5h-1.3v3.3h-.8v-3.3h-1.3c-.4-.1-.7-.4-.8-.8h5c-.1.4-.4.7-.8.8zm6.4 3.4H22c-.4-.1-.7-.5-.8-.8h4.5c-.1.4-.4.7-.8.8zm0-1.7H22c-.4-.1-.7-.4-.8-.8h4.5c-.1.3-.4.7-.8.8zm0-1.6H22c-.4-.1-.7-.5-.8-.8h4.5c-.1.3-.4.6-.8.8zm7.3.7v2.5h-4.3c.1-.4.4-.7.8-.8h2.8V48H28v-2.5h4.3c-.1.4-.4.7-.8.8h-2.7v.8h3.4zm5.7 2.6h-3.5v-4.2h.8v3.4h3.4c-.1.3-.3.6-.7.8zm-3.5-35.2L29.8 39l-4.6-24.5c-2.4 0-5 .4-5 2.2-1.5-.4-2.8-1.3-3.7-2.5h-.1c3.5-1.4 9.2-1.6 11.7-1.5l1.6 2 1.6-2c2.5-.1 8.2.1 11.7 1.5-1 1.2-2.3 2.1-3.7 2.5 0-1.8-2.5-2.2-4.9-2.2zm10.7 35.2h-.8V48h-2.8v1.7h-.8v-2.5H45v2.5zm-.7-3.3h-2.9c-.4-.1-.7-.4-.8-.8h4.5c-.1.3-.4.6-.8.8z"/></symbol><symbol id="udia" viewBox="0 0 59.5 59.5"><title>udia</title><path d="M30.2 28.4c-.5-.4-1.1-.6-1.8-.5h-.9v4.5h.9c.6.1 1.3-.1 1.8-.5 1-.9 1-2.4.1-3.4 0 0 0-.1-.1-.1z"/><path d="M29.8 0C13.3 0 0 13.3 0 29.8c0 16.4 13.3 29.8 29.8 29.8s29.8-13.3 29.8-29.8C59.5 13.3 46.2 0 29.8 0zm17.4 17l3 2.9 4.1-.8-1.9 3.8 2.1 3.7-4.1-.6-2.8 3.1-.7-4.2-3.9-1.7 3.7-2 .5-4.2zM16.7 6.5l4 1.2L24 5l.1 4.2 3.5 2.3-4 1.4-1.1 4.1-2.5-3.4-4.2.2 2.4-3.5-1.5-3.8zM5.2 19.1l4.1.9 3-2.9.5 4.2 3.7 2-3.8 1.8-.7 4L9.1 26l-4.1.6 2-3.7-1.8-3.8zm10.9 24.2l-4.1-1-3.1 2.8-.3-4.2L5 38.8l3.9-1.6.9-4.1 2.7 3.2 4.2-.5-2.2 3.6 1.6 3.9zm9-12.6c0 .7-.2 1.3-.7 1.8-1 1.1-2.7 1.1-3.8.1l-.1-.1c-.5-.5-.7-1.2-.7-1.8V27h.9v3.7c0 .4.1.9.4 1.2.7.7 1.8.7 2.5.1l.1-.1c.3-.3.4-.8.4-1.2V27h.9v3.7zm6.1 1.4l-.6.6c-.6.4-1.4.6-2.1.6h-1.9V27h1.9c.8 0 1.5.2 2.1.6 1.4 1.1 1.7 3.1.6 4.5zm4.3-22.9l.1-4.2 3.3 2.6 4-1.2-1.5 3.9 2.4 3.5-4.2-.2L37 17l-1.1-4.1-4-1.4 3.6-2.3zm-1.6 24.1H33V27h.9v6.3zm5.7 0l-.6-1.6h-2.6l-.7 1.6h-.9l2.6-6.2h.6l2.6 6.2h-1zm11.1 11.8l-3.1-2.8-4.1 1 1.7-3.9-2.2-3.6 4.2.5 2.7-3.2.9 4.1 3.9 1.6-3.7 2.1-.3 4.2z"/><path d="M36.7 30.8h1.9l-1-2.3z"/></symbol></svg>