<svg xmlns="http://www.w3.org/2000/svg"><defs><style/><style/><style/><style/><style/></defs><symbol id="angle-down" viewBox="0 0 13.65 8.8"><title>angle-down</title><path d="M6.83 8.8L0 1.35 1.48 0l5.35 5.84L12.18 0l1.47 1.35L6.83 8.8z"/></symbol><symbol id="angle-up" viewBox="0 0 23.57 16.24"><title>angle-up</title><path class="cls-1" d="M22 16.24l-10.21-13-10.22 13L0 15 11.79 0l11.78 15L22 16.24z"/></symbol><symbol id="close-x" viewBox="0 0 20.86 20.86"><title>close-x</title><path class="cls-1" transform="rotate(-45 -858.13 2153.14)" d="M1257.51 1251.07h27.5v2h-27.5z"/><path class="cls-1" transform="rotate(-45 -857.944 2153.202)" d="M1270.26 1238.32h2v27.5h-2z"/></symbol><symbol id="logo-glenvill" viewBox="0 0 113.4 15.58"><title>logo-glenvill</title><path d="M35.11 14.76h7.29v.63h-7.29zM33.45.23v15.16h.62V.86h8.34V.23h-8.96z"/><path d="M35.12 7.23h6.63V6.6h-6.02V2.44h6.68v-.63h-7.29v5.42zM35.12 8.18V13.79h7.29v-.63h-6.68V8.81h6.02v-.63h-6.63zM59.35.23v15.16h.63V.23h-.63zM48.43.23h.62v15.16h-.62zM82.52.23h.62v15.16h-.62zM84.19.23h.62v15.16h-.62zM12.37 4.06l.36-.54-.52-.35a8.72 8.72 0 0 0-2.08-1.15 7 7 0 0 0-2.41-.45 6 6 0 0 0-2.36.46 5.78 5.78 0 0 0-1.89 1.29 6 6 0 0 0-1.26 2 6.73 6.73 0 0 0-.46 2.51 6.47 6.47 0 0 0 .48 2.55 5.74 5.74 0 0 0 3.28 3.2 6.44 6.44 0 0 0 2.37.44 6.75 6.75 0 0 0 2.1-.31 6.46 6.46 0 0 0 1.78-.9V9.15H7.24v.63h3.9v2.69a5.93 5.93 0 0 1-1.35.64 6.2 6.2 0 0 1-1.91.28 5.85 5.85 0 0 1-2.14-.4 5.12 5.12 0 0 1-2.93-2.85 5.9 5.9 0 0 1-.43-2.3 6.11 6.11 0 0 1 .41-2.28 5.35 5.35 0 0 1 1.12-1.77A5.16 5.16 0 0 1 5.6 2.64a5.34 5.34 0 0 1 2.11-.42 6.41 6.41 0 0 1 2.2.41 8.13 8.13 0 0 1 1.93 1.07z"/><path d="M7.25 7.51h4.51v.63H7.25z"/><path d="M13.63 2.18l-.49-.36a12.51 12.51 0 0 0-1.13-.73 8.61 8.61 0 0 0-1.25-.58A7.75 7.75 0 0 0 9.35.13 9.21 9.21 0 0 0 7.73 0a7.85 7.85 0 0 0-2.84.53 7.56 7.56 0 0 0-4.22 4 8.42 8.42 0 0 0 0 6.55 7.38 7.38 0 0 0 1.76 2.44 7.72 7.72 0 0 0 2.51 1.52 8.37 8.37 0 0 0 2.92.52 8.63 8.63 0 0 0 2.94-.48 8.37 8.37 0 0 0 2.4-1.36l.23-.19v-6h-.62v5.73a7.72 7.72 0 0 1-2.23 1.26 7.94 7.94 0 0 1-2.73.44 7.72 7.72 0 0 1-2.7-.48 7.06 7.06 0 0 1-2.31-1.39 6.78 6.78 0 0 1-1.61-2.24 7.79 7.79 0 0 1 0-6 6.93 6.93 0 0 1 3.88-3.69A7.2 7.2 0 0 1 7.73.67a8.63 8.63 0 0 1 1.52.12 7.23 7.23 0 0 1 1.3.35 8.08 8.08 0 0 1 1.16.54c.34.2.68.41 1 .64l.58.4zM77.56.23l-.36.86h-.01l-5.42 12.89.34.81L77.86 1.1l.37-.87h-.67zM76.16.23h-.42l-4.47 10.91L66.77.23h-.68l4.85 11.73.33.81L76.42.23h-.26zM64.26.23l6.38 15.16h.67L64.93.23h-.67zM19.69.23h.62v15.16h-.62zM21.36.23v13.56h7.29v-.63h-6.67V.23h-.62zM21.36 14.76h7.29v.63h-7.29zM90.95.23h.62v15.16h-.62zM92.61.23v13.56h7.29v-.63h-6.67V.23h-.62zM92.61 14.76h7.29v.63h-7.29zM104.44.23h.62v15.16h-.62zM106.11.23v13.56h7.29v-.63h-6.67V.23h-.62zM106.11 14.76h7.29v.63h-7.29zM57.69.23v10.24L50.07.64v1.02l8.24 10.63V.23h-.62zM50.07 4.19v11.2h.63V5l7.61 9.88v-1.02L50.7 3.98l-.63-.81v1.02z"/></symbol><symbol id="logo-white" viewBox="0 0 700.19 106.52"><title>logo-white</title><path class="cls-1" d="M1882.22 432.93c0 12.93.42 15.57 2.5 18.5 1.95 2.5 4.31 3.48 10.43 3.89v1.39h-53.26v-1.39c6.12-.42 8.62-1.39 10.43-3.89 2.09-2.92 2.5-5.42 2.5-18.5V419l-22.81-38c-7.09-11.4-11-14.74-18.36-15.71V364h54v1.39c-4.87.56-7.51 2.92-7.51 6.68 0 3.48 1.39 7 5.15 13.21l15.85 26.28 4.73-7.65c6.26-10.15 9.32-18.91 9.32-26.84 0-6.81-1.81-10.29-6-11.68V364h35.32v1.39c-9.18 1.39-20.72 13.21-35.18 36l-7.11 11.61v19.89zm96.7 14.46c-9.6 8.07-16.13 11.12-23.22 11.12-7.65 0-12.1-4.31-13.91-13.21-6.67 9.32-14 13.21-25 13.21-11.68 0-19.75-6.26-19.75-15.16 0-8.2 5-13.07 20.3-19.47a204.35 204.35 0 0 1 24.47-8.48v-7.23c0-9.46-.56-13.63-1.95-15.85a7.21 7.21 0 0 0-6.26-3.34 10.35 10.35 0 0 0-9.46 5.56c-1.25 2.5-1.39 3.34-2.5 12.1s-6.82 14.36-14.75 14.36a9.35 9.35 0 0 1-9.73-9.73c0-5.84 4-10.85 12.65-15.58 10.71-6.12 26.84-10.29 38.94-10.29 5.15 0 9 1.25 12.24 3.89 4 3.2 5.42 7.37 5.42 15.3v32c0 5.29.14 7.09 1 8.76s2.78 2.92 5.15 2.92c1.67 0 2.92-.42 5.56-1.81zm-37.13-30.32c-12.65 4-16.41 8.48-16.41 19.05 0 8.34 2.78 12.93 8.07 12.93s8.34-4 8.34-10.43v-21.54zm65.91-10.43c5.56-14.74 12-21.28 21-21.28a12.2 12.2 0 0 1 12.52 12.1c0 6.67-4.73 11.68-10.71 11.68a9.93 9.93 0 0 1-6.54-2.36c-1.11-.83-1.11-.83-4-4.87-1.53-1.95-2.78-2.78-4.31-2.78s-3.2 1-4.31 2.92c-2.09 3.75-2.5 7.09-2.5 19.47v17.38c0 14.18 1.25 16 11.12 16.41v1.39h-46.86v-1.39c9.87-.42 11.12-2.23 11.12-16.41v-22.79c0-8.34-.56-11.68-2.78-14.6-1.95-2.64-4.45-3.75-9-4l-.28-1.39c14.88-3.48 19.61-4.87 35.6-10.71v21.28zm65.49 0c5.56-14.74 12-21.28 21-21.28a12.2 12.2 0 0 1 12.52 12.1c0 6.67-4.73 11.68-10.71 11.68a9.93 9.93 0 0 1-6.54-2.36c-1.11-.83-1.11-.83-4-4.87-1.53-1.95-2.78-2.78-4.31-2.78s-3.2 1-4.31 2.92c-2.09 3.75-2.5 7.09-2.5 19.47v17.38c0 14.18 1.25 16 11.12 16.41v1.39h-46.86v-1.39c9.87-.42 11.12-2.23 11.12-16.41v-22.79c0-8.34-.56-11.68-2.78-14.6-1.95-2.64-4.45-3.75-9-4l-.28-1.39c14.88-3.48 19.61-4.87 35.6-10.71v21.28zm112.35 40.74c-9.6 8.07-16.13 11.12-23.22 11.12-7.65 0-12.1-4.31-13.91-13.21-6.67 9.32-14 13.21-25 13.21-11.68 0-19.75-6.26-19.75-15.16 0-8.2 5-13.07 20.3-19.47a204.37 204.37 0 0 1 24.47-8.48v-7.23c0-9.46-.56-13.63-1.95-15.85a7.21 7.21 0 0 0-6.26-3.34 10.35 10.35 0 0 0-9.46 5.56c-1.25 2.5-1.39 3.34-2.5 12.1s-6.82 14.37-14.74 14.37a9.35 9.35 0 0 1-9.73-9.73c0-5.84 4-10.85 12.65-15.58 10.71-6.12 26.84-10.29 38.94-10.29 5.15 0 9 1.25 12.24 3.89 4 3.2 5.42 7.37 5.42 15.3v32c0 5.29.14 7.09 1 8.76s2.78 2.92 5.15 2.92c1.67 0 2.92-.42 5.56-1.81zm-37.13-30.32c-12.65 4-16.41 8.48-16.41 19.05 0 8.34 2.78 12.93 8.07 12.93s8.34-4 8.34-10.43v-21.53zm70.23-53.06c20.86 0 31.43 1.39 39.35 5.15 8.48 4 12.65 9.6 12.65 16.69 0 7.65-4.87 13.63-13.77 16.69-4.87 1.53-10.43 2.36-18.91 2.78 13.77 1.67 19.75 3.06 25.31 5.84 8.9 4.31 13.63 11 13.63 19.33 0 16.27-16.41 26.28-42.69 26.28h-52v-1.39c6.12-.42 8.62-1.39 10.43-3.89 2.09-2.92 2.5-5.42 2.5-18.5v-45.24c0-13.07-.42-15.58-2.5-18.5-1.81-2.5-4.31-3.48-10.43-3.89V364h36.43zm7.51 40.88c8.48 0 11.82-1.25 14.32-5.28 2.36-3.62 3.48-8.07 3.48-14.32 0-7.65-1.53-12.79-4.87-16-2.78-2.64-6.26-3.61-13.21-3.61h-3.34v39.21h3.62zm-3.62 35.46c0 12.38 1.39 14.74 8.62 14.74 11.54 0 16.55-7.37 16.55-24.2 0-9.46-1.81-16.13-5.28-19.75s-7.23-4.59-15.58-4.59h-4.31v33.76zm81.9-25c.14 17.24 7.79 25.87 23.08 25.87 10 0 16.55-3.48 22.25-12.1l1.25.56c-3.06 8.2-5.28 12.1-9.18 16.83-6.4 7.79-15.85 12.1-26.56 12.1-20.86 0-36.71-15.44-36.71-35.6a37.36 37.36 0 0 1 37.82-37.55c11.54 0 21.83 5 28.23 13.77 3.48 4.73 4.87 8.9 5.84 16.13h-46zm21.28-1.67c0-9.32-.28-13.63-1-17.38-1.39-6.26-4-9-8.62-9-7.51 0-11.82 9.46-11.82 26.42h21.41zm59.24-15c9.6-9.87 16.13-13.21 25.31-13.21 6.26 0 11.54 2.09 14.18 5.84 2.36 3.06 3.2 7.09 3.2 14.46v36c-.14 11.4.83 12.93 8.34 13.63v1.39h-39.49v-1.39c5.84-.7 6.67-2.36 6.54-13.63v-26.35c0-11.13-.28-13.63-1.53-16a7.14 7.14 0 0 0-6-3.48c-3.48 0-6.68 1.53-10.57 4.87v40.9c-.14 11.26.7 12.93 6.54 13.63v1.39h-42.28v-1.39c9.87-.42 11.13-2.23 11.13-16.41v-22.81c0-8.34-.56-11.68-2.78-14.6-1.95-2.64-4.45-3.75-9-4l-.28-1.39a298.06 298.06 0 0 0 36.71-10.71v13.21zm94 48.81c-6.67 7.65-13.49 11.12-21.14 11.12-14.6 0-25.31-13.63-25.31-32.26 0-22.81 16.83-40.88 37.82-40.88 3.2 0 4.87.42 8.62 1.81v-5.42c0-8.34-.56-11.54-2.78-14.46-1.95-2.78-4.45-3.89-9-4l-.28-1.53a314 314 0 0 0 36.71-9.74v77.74c0 13.63 1.53 16.13 10.29 16.83V448c-13.49 3.62-19.19 5.42-34.9 10.57V447.4zm0-52.43c0-4.73-2.64-7.79-7-7.79-8.76 0-13.49 12.38-13.49 35.18 0 19.33 3.61 27.4 12 27.4 3.34 0 5.28-1.11 8.48-4.73V395z" transform="translate(-1813.66 -352)"/></symbol><symbol id="logo-with-tag" viewBox="0 0 130.97 34.68"><title>logo-with-tag</title><path d="M20.1 25.73a3.76 3.76 0 0 1 2.42.88 3.48 3.48 0 0 1 0 5.46 3.9 3.9 0 0 1-4.94 0 3.49 3.49 0 0 1 0-5.46 4 4 0 0 1 2.52-.88zm-.07.14a1.16 1.16 0 0 0-.88.4q-.62.67-.62 3.08a7.63 7.63 0 0 0 .36 2.65 1.3 1.3 0 0 0 .52.65 1.26 1.26 0 0 0 1.56-.22q.62-.67.62-3a7.7 7.7 0 0 0-.35-2.69 1.33 1.33 0 0 0-.47-.61 1.26 1.26 0 0 0-.74-.26z"/><path d="M26.73 28.48a6.05 6.05 0 0 1 .6-.54 2.13 2.13 0 0 1 1.3-.45 1.23 1.23 0 0 1 1.06.44 1.88 1.88 0 0 1 .24 1.09v3.24a.54.54 0 0 0 .61.48v.1h-3v-.1a.46.46 0 0 0 .43-.25 2.89 2.89 0 0 0 .06-.78v-2a7.44 7.44 0 0 0 0-1 .57.57 0 0 0-.24-.4.54.54 0 0 0-.29-.09 1.25 1.25 0 0 0-.79.37v3.06a2.89 2.89 0 0 0 .06.78.46.46 0 0 0 .43.25v.1h-3.17v-.1a.9.9 0 0 0 .68-.23 1 1 0 0 0 .14-.48v-2.23a3.92 3.92 0 0 0-.07-.8.79.79 0 0 0-.82-.59v-.11a24.56 24.56 0 0 0 2.74-.8v1zM35.83 27.61h1.31l-.26.49h-1.05v3a1.39 1.39 0 0 0 .18.81.79.79 0 0 0 .68.29 1.93 1.93 0 0 0 .61-.12l.05.09a7 7 0 0 1-.64.42 2.52 2.52 0 0 1-1.22.36 1.57 1.57 0 0 1-1-.34 1.13 1.13 0 0 1-.37-.54 3.22 3.22 0 0 1-.1-.86V28.1h-1.28a7.65 7.65 0 0 0 1.82-1.16 7.48 7.48 0 0 0 1.3-1.44v2.12z"/><path d="M39.83 28.48a9.47 9.47 0 0 1 .76-.57 2.41 2.41 0 0 1 1.33-.46 1.05 1.05 0 0 1 .87.36 1.07 1.07 0 0 1 .22.47 3.41 3.41 0 0 1 .05.63V32.22a.54.54 0 0 0 .61.48v.1h-3v-.1a.46.46 0 0 0 .43-.25 2.91 2.91 0 0 0 .06-.78v-2.49a1.26 1.26 0 0 0-.13-.68.53.53 0 0 0-.45-.23 1.33 1.33 0 0 0-.81.4v3a2.89 2.89 0 0 0 .06.78.46.46 0 0 0 .43.25v.1h-3.17v-.1a.9.9 0 0 0 .68-.23 1 1 0 0 0 .14-.48V27.19a3.92 3.92 0 0 0-.07-.8.78.78 0 0 0-.82-.59v-.11a22 22 0 0 0 2.74-.74v3.53zM49.43 29.7h-3.45q0 1.95 1.73 1.95a1.92 1.92 0 0 0 1.12-.32 2.25 2.25 0 0 0 .54-.6h.1a4.53 4.53 0 0 1-.69 1.26 2.44 2.44 0 0 1-2 .91 2.69 2.69 0 0 1-2-.82 2.56 2.56 0 0 1-.74-1.85 2.66 2.66 0 0 1 1-2.12 2.77 2.77 0 0 1 1.87-.69 2.66 2.66 0 0 1 1.44.4 2.34 2.34 0 0 1 .94 1.12 2.91 2.91 0 0 1 .14.76zm-1.85-.12a7.55 7.55 0 0 0-.07-1.26.7.7 0 0 0-.65-.71.93.93 0 0 0-.79 1 5 5 0 0 0-.09 1h1.6zM57.73 29.7h-3.45q0 1.95 1.73 1.95a1.92 1.92 0 0 0 1.12-.32 2.25 2.25 0 0 0 .54-.6h.1a4.53 4.53 0 0 1-.69 1.26 2.44 2.44 0 0 1-2 .91 2.69 2.69 0 0 1-2-.82 2.56 2.56 0 0 1-.74-1.85 2.66 2.66 0 0 1 1-2.12 2.77 2.77 0 0 1 1.87-.69 2.66 2.66 0 0 1 1.44.4 2.34 2.34 0 0 1 .94 1.12 2.91 2.91 0 0 1 .14.76zm-1.85-.12a7.55 7.55 0 0 0-.07-1.26.7.7 0 0 0-.65-.71.93.93 0 0 0-.79 1 5 5 0 0 0-.09 1h1.6zM61.61 32.95v-.83a2.12 2.12 0 0 1-1.59.83 1.65 1.65 0 0 1-1.15-.46 2.28 2.28 0 0 1-.6-1 3.16 3.16 0 0 1-.15-1 3 3 0 0 1 .92-2.26 2.66 2.66 0 0 1 1.92-.81 1.79 1.79 0 0 1 .65.14v-.4a3.48 3.48 0 0 0-.07-.8.78.78 0 0 0-.82-.59v-.11a21.06 21.06 0 0 0 2.75-.74v5.83a2.52 2.52 0 0 0 .12 1 .52.52 0 0 0 .34.26h.31v.1q-1.26.37-2.63.84zm0-1V28.2a.57.57 0 0 0-.17-.46.52.52 0 0 0-.35-.13.65.65 0 0 0-.4.14.93.93 0 0 0-.29.38 5.31 5.31 0 0 0-.33 2.12 4.71 4.71 0 0 0 .18 1.49.74.74 0 0 0 .73.56.67.67 0 0 0 .45-.17 1.44 1.44 0 0 0 .18-.19zM65.76 30.21a.52.52 0 0 0-.23.4.45.45 0 0 0 .32.46 2.91 2.91 0 0 0 .92.1h1.39a2.12 2.12 0 0 1 1.32.39 1.35 1.35 0 0 1 .59 1.12 1.47 1.47 0 0 1-.2.71 1.94 1.94 0 0 1-.52.61 3.51 3.51 0 0 1-1.13.54 5.06 5.06 0 0 1-1.42.19 5.12 5.12 0 0 1-1.56-.22 1.26 1.26 0 0 1-.55-.33.69.69 0 0 1-.2-.48 1.25 1.25 0 0 1 1.08-1 1.83 1.83 0 0 1-.72-.3.92.92 0 0 1-.42-.76 1.83 1.83 0 0 1 1.21-1.47 1.64 1.64 0 0 1-.6-.31 1.11 1.11 0 0 1-.4-.86 1.15 1.15 0 0 1 .43-.85 3 3 0 0 1 1.94-.68v-.2a2 2 0 0 1 .24-1.05 1.16 1.16 0 0 1 1-.59 1 1 0 0 1 .66.24.8.8 0 0 1 .28.62.83.83 0 0 1-.19.56.69.69 0 0 1-.54.25.87.87 0 0 1-.62-.32.71.71 0 0 0-.4-.27q-.35 0-.35.66v.1h.1a2.93 2.93 0 0 1 1.27.29 1.29 1.29 0 0 1 .9 1.12 1.11 1.11 0 0 1-.16.55 1.48 1.48 0 0 1-.43.47 3.08 3.08 0 0 1-1.81.51 4.12 4.12 0 0 1-1.2-.2zm.06 2.52a.67.67 0 0 0-.31.58 1 1 0 0 0 .64.93 2.72 2.72 0 0 0 1.23.26 2 2 0 0 0 1.15-.29.81.81 0 0 0 .41-.7.64.64 0 0 0-.31-.57 1.58 1.58 0 0 0-.82-.19h-1.17a5.55 5.55 0 0 1-.81-.03zm1.17-5.12q-.63 0-.63 1.23a2.7 2.7 0 0 0 .17 1.1.54.54 0 0 0 .53.33.51.51 0 0 0 .51-.32 2.5 2.5 0 0 0 .13-.93q-.01-1.42-.72-1.42zM75.55 29.7H72.1q0 1.95 1.74 1.95a1.92 1.92 0 0 0 1.12-.32 2.24 2.24 0 0 0 .54-.6h.1a4.54 4.54 0 0 1-.69 1.26 2.44 2.44 0 0 1-2 .91 2.69 2.69 0 0 1-2-.82 2.55 2.55 0 0 1-.74-1.85 2.66 2.66 0 0 1 1-2.12 2.77 2.77 0 0 1 1.87-.69 2.66 2.66 0 0 1 1.45.4 2.35 2.35 0 0 1 .94 1.12 2.91 2.91 0 0 1 .12.76zm-1.85-.12a7.5 7.5 0 0 0-.07-1.26.7.7 0 0 0-.65-.71.93.93 0 0 0-.79 1 4.94 4.94 0 0 0-.09 1h1.6zM81.37 27.48a2.86 2.86 0 0 1 1.89.69 2.69 2.69 0 0 1 0 4.1 3 3 0 0 1-3.86 0 2.57 2.57 0 0 1-1-2 2.54 2.54 0 0 1 1-2.06 3 3 0 0 1 1.97-.73zm-.05.14a.63.63 0 0 0-.56.34 5.34 5.34 0 0 0-.29 2.27 8.84 8.84 0 0 0 .17 2 .9.9 0 0 0 .26.45.64.64 0 0 0 .44.17.65.65 0 0 0 .58-.34 5.19 5.19 0 0 0 .29-2.23 8.8 8.8 0 0 0-.17-2 .71.71 0 0 0-.72-.68z"/><path d="M88.26 27.59l-.28.49h-.87v3.4a4.69 4.69 0 0 0 0 .75.51.51 0 0 0 .32.4 2 2 0 0 0 .6.08v.1H84.4v-.1a.9.9 0 0 0 .68-.23 1 1 0 0 0 .14-.48v-3.91h-.61l1.19-1.51a7.66 7.66 0 0 1 1.19-1.28 1.5 1.5 0 0 1 .93-.27 2.19 2.19 0 0 1 1.23.33 1.18 1.18 0 0 1 .62 1 .74.74 0 0 1-.21.53.8.8 0 0 1-.6.23.9.9 0 0 1-.54-.17.81.81 0 0 1-.32-.54 4.14 4.14 0 0 1 0-.49 1.51 1.51 0 0 0-.1-.56.33.33 0 0 0-.3-.19.51.51 0 0 0-.43.28 1.46 1.46 0 0 0-.15.75v1.38h1.15zM96.65 32.81l-2.17-3.52v1.73a7.28 7.28 0 0 0 .05 1.08.63.63 0 0 0 .41.51 2.1 2.1 0 0 0 .51.09v.1h-4v-.1a1 1 0 0 0 .78-.3 1.14 1.14 0 0 0 .17-.6v-4.16a7.34 7.34 0 0 0-.05-1.08.63.63 0 0 0-.41-.51 2.08 2.08 0 0 0-.51-.09v-.1h4v.1a1 1 0 0 0-.78.29 1.18 1.18 0 0 0-.17.61V29.22q.42-.44 1.08-1.21a4.33 4.33 0 0 0 .61-.86 1.74 1.74 0 0 0 .2-.78.44.44 0 0 0-.19-.4v-.1h2.83v.1a5.29 5.29 0 0 0-1.78.77 8 8 0 0 0-1.43 1.17l1.49 2.23.94 1.38a2.32 2.32 0 0 0 1.73 1.19v.1h-3.31zM105.15 29.7h-3.45q0 1.95 1.74 1.95a1.92 1.92 0 0 0 1.12-.32 2.24 2.24 0 0 0 .54-.6h.1a4.54 4.54 0 0 1-.69 1.26 2.44 2.44 0 0 1-2 .91 2.69 2.69 0 0 1-2-.82 2.55 2.55 0 0 1-.74-1.85 2.66 2.66 0 0 1 1-2.12 2.77 2.77 0 0 1 1.87-.69 2.66 2.66 0 0 1 1.45.4 2.35 2.35 0 0 1 .94 1.12 2.91 2.91 0 0 1 .12.76zm-1.85-.12a7.5 7.5 0 0 0-.07-1.26.7.7 0 0 0-.65-.71.93.93 0 0 0-.79 1 4.94 4.94 0 0 0-.09 1h1.6zM109.25 30.83l.8-1.7a6.35 6.35 0 0 0-.53-1 .82.82 0 0 0-.32-.31 1.48 1.48 0 0 0-.3-.07v-.1h3.28v.1a.43.43 0 0 0-.44.44 1.65 1.65 0 0 0 .15.55l.29.66.67 1.47q.29-.61.41-.9a3.44 3.44 0 0 0 .31-1.35 1.09 1.09 0 0 0-.16-.65.72.72 0 0 0-.38-.23v-.1h2.36v.1q-1 .24-2.06 2.45l-1.4 2.94-1.78-3.83-1.8 3.83-2-4.13a4.93 4.93 0 0 0-.48-.85 1.06 1.06 0 0 0-.46-.36 1.37 1.37 0 0 0-.29 0v-.1h3.23v.1a.3.3 0 0 0-.3.32 1.94 1.94 0 0 0 .23.71zM69.45 18.92v.25m-6.26-3.31c0 1.17-.58 1.91-1.53 1.91s-1.48-.84-1.48-2.37c0-1.93.69-2.75 3-3.48v3.94zm6.64 1.42a2 2 0 0 1-1 .33 1 1 0 0 1-.94-.53 3.56 3.56 0 0 1-.18-1.6V9.63c0-1.45-.25-2.21-1-2.8a3.33 3.33 0 0 0-2.24-.71A16 16 0 0 0 57.35 8c-1.58.86-2.31 1.78-2.31 2.85a1.71 1.71 0 0 0 1.78 1.78 2.73 2.73 0 0 0 2.7-2.62 5.78 5.78 0 0 1 .46-2.21 1.89 1.89 0 0 1 1.73-1 1.32 1.32 0 0 1 1.14.61 6.23 6.23 0 0 1 .36 2.9v1.32a37.37 37.37 0 0 0-4.48 1.55c-2.8 1.17-3.71 2.06-3.71 3.56s1.47 2.77 3.61 2.77a5.11 5.11 0 0 0 4.58-2.42c.33 1.63 1.14 2.42 2.54 2.42s2.49-.56 4.25-2zM49.41 6.12a43.34 43.34 0 0 1-6.51 2l.05.25a1.94 1.94 0 0 1 1.65.74c.41.53.51 1.14.51 2.67v4.17c0 2.59-.23 2.92-2 3v.25h8.57v-.25c-1.81-.08-2-.41-2-3v-3.18c0-2.26.08-2.87.46-3.56a.92.92 0 0 1 .79-.53 1 1 0 0 1 .79.51 3.09 3.09 0 0 0 .74.89 1.82 1.82 0 0 0 1.2.43 2 2 0 0 0 2-2.14 2.23 2.23 0 0 0-2.29-2.21c-1.65 0-2.82 1.2-3.84 3.89V6.16zm-12.11 0a43.35 43.35 0 0 1-6.51 2l.05.25a1.94 1.94 0 0 1 1.65.74c.41.53.51 1.14.51 2.67v4.17c0 2.59-.23 2.92-2 3v.25h8.57v-.25c-1.81-.08-2-.41-2-3v-3.18c0-2.26.08-2.87.46-3.56a.92.92 0 0 1 .79-.53 1 1 0 0 1 .79.51 3.09 3.09 0 0 0 .74.89 1.82 1.82 0 0 0 1.2.43 2 2 0 0 0 2-2.14 2.23 2.23 0 0 0-2.29-2.21c-1.65 0-2.82 1.2-3.84 3.89V6.16zm-12.13 9.74c0 1.17-.58 1.91-1.53 1.91s-1.47-.84-1.47-2.37c0-1.93.69-2.75 3-3.48v3.94zm6.64 1.42a2 2 0 0 1-1 .33 1 1 0 0 1-.94-.53 3.56 3.56 0 0 1-.18-1.6V9.63c0-1.45-.25-2.21-1-2.8a3.33 3.33 0 0 0-2.24-.71A16 16 0 0 0 19.33 8c-1.58.86-2.31 1.78-2.31 2.85a1.71 1.71 0 0 0 1.78 1.78 2.73 2.73 0 0 0 2.7-2.62 5.78 5.78 0 0 1 .46-2.21 1.89 1.89 0 0 1 1.73-1 1.32 1.32 0 0 1 1.14.61 6.23 6.23 0 0 1 .36 2.9v1.32a37.39 37.39 0 0 0-4.48 1.55c-2.8 1.17-3.71 2.06-3.71 3.56s1.48 2.77 3.61 2.77a5.11 5.11 0 0 0 4.58-2.42c.33 1.63 1.14 2.42 2.54 2.42s2.49-.56 4.25-2zm-19.27-6.1l1.3-2.14c2.64-4.17 4.76-6.33 6.43-6.59V2.2h-6.44v.28c.76.25 1.09.89 1.09 2.14a9.56 9.56 0 0 1-1.7 4.91l-.86 1.4-2.9-4.81a4.8 4.8 0 0 1-.94-2.42 1.28 1.28 0 0 1 1.31-1.22v-.25H-.04v.25c1.35.18 2.06.79 3.36 2.87l4.17 6.94v2.54c0 2.39-.08 2.85-.46 3.38s-.79.64-1.91.71v.25h9.74v-.25a2.24 2.24 0 0 1-1.91-.71c-.38-.53-.46-1-.46-3.38v-3.64z"/><path d="M124.58 17.03a1.87 1.87 0 0 1-1.55.87c-1.53 0-2.19-1.48-2.19-5 0-4.17.87-6.44 2.47-6.44a1.26 1.26 0 0 1 1.27 1.42v9.16zm0 2.47c2.88-.94 3.92-1.27 6.39-1.93v-.25c-1.6-.13-1.88-.59-1.88-3.08V.02a57.46 57.46 0 0 1-6.72 1.78l.05.28a1.82 1.82 0 0 1 1.65.74c.41.53.51 1.12.51 2.65v1a3.82 3.82 0 0 0-1.58-.33 7.18 7.18 0 0 0-6.92 7.48c0 3.41 2 5.9 4.63 5.9a5 5 0 0 0 3.87-2v2zm-18-13.38a54.56 54.56 0 0 1-6.72 2l.05.25a1.94 1.94 0 0 1 1.65.74c.41.53.51 1.15.51 2.67v4.17c0 2.6-.23 2.93-2 3v.25h7.74v-.25c-1.07-.13-1.22-.43-1.2-2.49V8.98a3 3 0 0 1 1.93-.89 1.31 1.31 0 0 1 1.09.64c.23.43.28.89.28 2.93v4.81c0 2.06-.13 2.37-1.2 2.49v.25h7.12v-.25c-1.37-.13-1.55-.41-1.53-2.49V9.88a4.11 4.11 0 0 0-.59-2.65 3.1 3.1 0 0 0-2.6-1.07c-1.68 0-2.88.61-4.63 2.42V6.16zm-14.89 5.17c0-3.1.79-4.83 2.16-4.83.84 0 1.32.51 1.58 1.65a17.4 17.4 0 0 1 .18 3.18h-3.92zm8.45.31a5.69 5.69 0 0 0-1.07-3 6.29 6.29 0 0 0-5.17-2.52 6.84 6.84 0 0 0-6.92 6.87 6.5 6.5 0 0 0 6.72 6.51 6.16 6.16 0 0 0 4.86-2.21 9.33 9.33 0 0 0 1.68-3.08l-.23-.1a4.39 4.39 0 0 1-4.07 2.21c-2.8 0-4.2-1.58-4.22-4.73h8.42zM76.86 10h.79c1.53 0 2.24.2 2.85.84a5.25 5.25 0 0 1 1 3.61c0 3.08-.92 4.43-3 4.43-1.32 0-1.58-.43-1.58-2.7V10zm0-.31V2.48h.61a3.17 3.17 0 0 1 2.42.66 3.88 3.88 0 0 1 .89 2.93 4.59 4.59 0 0 1-.64 2.62c-.46.74-1.07 1-2.62 1h-.69zm-7.38-7.48v.27c1.12.08 1.58.25 1.91.71s.46 1 .46 3.38v8.27c0 2.39-.08 2.85-.46 3.38s-.79.64-1.91.71v.25H79c4.81 0 7.81-1.83 7.81-4.81a3.87 3.87 0 0 0-2.49-3.54 2.7 2.7 0 1 1-1.17-1.58 3.24 3.24 0 0 0 2.52-3.05c0-1.3-.76-2.32-2.32-3.05s-3.38-.94-7.2-.94h-6.67z"/></symbol><symbol id="logo" viewBox="0 0 112.57 16.76"><title>logo</title><path d="M59.7 16.26v.22m-5.38-2.84a1.39 1.39 0 0 1-1.31 1.64c-.83 0-1.27-.72-1.27-2 0-1.66.59-2.36 2.58-3v3.4zm5.71 1.22a1.73 1.73 0 0 1-.87.28.83.83 0 0 1-.81-.46 3.06 3.06 0 0 1-.15-1.38v-5a2.68 2.68 0 0 0-.85-2.4 2.86 2.86 0 0 0-1.92-.61 13.74 13.74 0 0 0-6.12 1.62c-1.36.74-2 1.53-2 2.45a1.47 1.47 0 0 0 1.53 1.53 2.34 2.34 0 0 0 2.32-2.25 5 5 0 0 1 .39-1.9 1.63 1.63 0 0 1 1.49-.87 1.13 1.13 0 0 1 1 .52 5.35 5.35 0 0 1 .31 2.49v1.14a32.12 32.12 0 0 0-3.85 1.33c-2.4 1-3.19 1.77-3.19 3.06s1.27 2.38 3.1 2.38a4.4 4.4 0 0 0 3.93-2.08c.28 1.4 1 2.08 2.19 2.08s2.14-.48 3.65-1.75zm-17.55-9.6a37.26 37.26 0 0 1-5.6 1.68v.22a1.67 1.67 0 0 1 1.42.63 3.5 3.5 0 0 1 .44 2.3v3.59c0 2.23-.2 2.51-1.75 2.58v.22h7.37v-.22c-1.55-.07-1.75-.35-1.75-2.58v-2.73c0-1.95.07-2.47.39-3.06a.79.79 0 0 1 .68-.46.87.87 0 0 1 .68.44 2.66 2.66 0 0 0 .63.77 1.56 1.56 0 0 0 1 .37 1.74 1.74 0 0 0 1.68-1.84 1.92 1.92 0 0 0-2-1.9c-1.42 0-2.43 1-3.3 3.34V5.27zm-10.41 0a37.26 37.26 0 0 1-5.6 1.68v.22a1.66 1.66 0 0 1 1.42.63 3.5 3.5 0 0 1 .44 2.3v3.59c0 2.23-.2 2.51-1.75 2.58v.22h7.37v-.22c-1.55-.07-1.75-.35-1.75-2.58v-2.73c0-1.95.07-2.47.39-3.06a.79.79 0 0 1 .68-.46.87.87 0 0 1 .68.44 2.66 2.66 0 0 0 .63.77 1.56 1.56 0 0 0 1 .37 1.74 1.74 0 0 0 1.68-1.84 1.92 1.92 0 0 0-2-1.9c-1.42 0-2.43 1-3.3 3.34V5.27zm-10.43 8.42a1.39 1.39 0 0 1-1.31 1.64c-.83 0-1.27-.72-1.27-2 0-1.66.59-2.36 2.58-3v3.36zm5.71 1.22a1.73 1.73 0 0 1-.87.28.83.83 0 0 1-.81-.46 3.06 3.06 0 0 1-.15-1.38v-5a2.68 2.68 0 0 0-.85-2.4 2.86 2.86 0 0 0-1.92-.61 13.74 13.74 0 0 0-6.12 1.62c-1.36.74-2 1.53-2 2.45a1.47 1.47 0 0 0 1.53 1.53 2.34 2.34 0 0 0 2.32-2.25 5 5 0 0 1 .39-1.9 1.63 1.63 0 0 1 1.49-.87 1.13 1.13 0 0 1 1 .52 5.35 5.35 0 0 1 .31 2.49v1.14a32.14 32.14 0 0 0-3.85 1.33c-2.4 1-3.19 1.77-3.19 3.06s1.27 2.38 3.1 2.38a4.4 4.4 0 0 0 3.93-2.08c.28 1.4 1 2.08 2.19 2.08s2.14-.48 3.65-1.75zM10.78 9.65l1.11-1.84c2.27-3.58 4.09-5.44 5.53-5.66v-.22h-5.55v.22c.66.22.94.77.94 1.84a8.22 8.22 0 0 1-1.46 4.22l-.74 1.2-2.45-4.17a4.12 4.12 0 0 1-.81-2.08 1.1 1.1 0 0 1 1.18-1v-.22H0v.22c1.16.15 1.77.68 2.89 2.47l3.58 6v2.19c0 2.05-.07 2.45-.39 2.91a1.89 1.89 0 0 1-1.64.61v.22h8.37v-.22a1.92 1.92 0 0 1-1.65-.66c-.33-.46-.39-.87-.39-2.91V9.64z"/><path d="M107.08 14.63a1.61 1.61 0 0 1-1.33.74c-1.31 0-1.88-1.27-1.88-4.31 0-3.59.74-5.53 2.12-5.53a1.08 1.08 0 0 1 1.09 1.22v7.87zm0 2.12c2.47-.81 3.37-1.09 5.49-1.66v-.22c-1.38-.11-1.62-.5-1.62-2.65V-.01a49.39 49.39 0 0 1-5.77 1.53v.24a1.56 1.56 0 0 1 1.42.63 3.43 3.43 0 0 1 .44 2.27v.85a3.28 3.28 0 0 0-1.36-.28 6.17 6.17 0 0 0-5.95 6.43c0 2.93 1.68 5.07 4 5.07a4.33 4.33 0 0 0 3.32-1.75v1.75zM91.57 5.25a46.9 46.9 0 0 1-5.77 1.68v.22a1.67 1.67 0 0 1 1.42.63 3.5 3.5 0 0 1 .44 2.3v3.6c0 2.23-.2 2.52-1.75 2.58v.22h6.65v-.22c-.92-.11-1-.37-1-2.14V7.68a2.54 2.54 0 0 1 1.66-.77 1.12 1.12 0 0 1 .94.55c.2.37.24.77.24 2.52v4.13c0 1.77-.11 2-1 2.14v.22h6.21v-.22c-1.18-.11-1.33-.35-1.31-2.14V8.45a3.53 3.53 0 0 0-.5-2.27 2.67 2.67 0 0 0-2.23-.92c-1.44 0-2.47.52-4 2.08V5.26zM78.78 9.68c0-2.67.68-4.16 1.86-4.16.72 0 1.14.44 1.36 1.42a15 15 0 0 1 .16 2.74h-3.37zm7.26.26a4.89 4.89 0 0 0-.92-2.54 5.4 5.4 0 0 0-4.44-2.17 5.88 5.88 0 0 0-5.95 5.91 5.58 5.58 0 0 0 5.77 5.6 5.29 5.29 0 0 0 4.18-1.9 8 8 0 0 0 1.44-2.65l-.2-.09a3.77 3.77 0 0 1-3.5 1.9c-2.41 0-3.61-1.36-3.63-4.07h7.24zm-20-1.38h.68a3 3 0 0 1 2.45.72 4.52 4.52 0 0 1 .83 3.11c0 2.65-.79 3.81-2.6 3.81-1.14 0-1.36-.37-1.36-2.32V8.57zm0-.26V2.13h.52a2.72 2.72 0 0 1 2.08.57 3.33 3.33 0 0 1 .77 2.52 4 4 0 0 1-.55 2.25c-.39.63-.92.83-2.25.83h-.57zM59.7 1.87v.22a1.9 1.9 0 0 1 1.64.61c.33.46.39.85.39 2.91v7.07c0 2.06-.07 2.45-.39 2.91a1.9 1.9 0 0 1-1.64.61v.22h8.18c4.13 0 6.71-1.57 6.71-4.13a3.33 3.33 0 0 0-2.14-3 11.56 11.56 0 0 0-4-.92 11.62 11.62 0 0 0 3-.44 2.79 2.79 0 0 0 2.17-2.62 2.9 2.9 0 0 0-2-2.62c-1.25-.59-2.91-.81-6.19-.81H59.7z"/></symbol><symbol id="select-angle-copy" viewBox="0 0 8.35 6.37"><title>select-angle</title><path class="cls-1" d="M4.17 6.37L0 .58.81 0l3.36 4.66L7.54 0l.81.58-4.18 5.79z"/></symbol><symbol id="select-angle" viewBox="0 0 8.35 6.37"><title>select-angle</title><path class="cls-1" d="M4.17 6.37L0 .58.81 0l3.36 4.66L7.54 0l.81.58-4.18 5.79z"/></symbol></svg>