<svg id="_24_Grid_Col" data-name="24 Grid Col" xmlns="http://www.w3.org/2000/svg" width="203" height="65.76" viewBox="0 0 203 65.76"><defs><style>.cls-1{fill:#1d1d1b;}.cls-2{fill:#fff;}</style></defs><title>map-marker-main</title><rect class="cls-1" width="203" height="51.76"/><polygon class="cls-1" points="86.51 47.16 97.47 29.14 109.37 47.74 98.41 65.77 86.51 47.16"/><path class="cls-2" d="M2167.12,6410.12v0.34m-8.44-4.46c0,1.58-.79,2.57-2.06,2.57s-2-1.13-2-3.19c0-2.61.93-3.7,4-4.7V6406Zm8.95,1.92a2.72,2.72,0,0,1-1.37.45,1.31,1.31,0,0,1-1.27-.72,4.8,4.8,0,0,1-.24-2.16v-7.89c0-2-.34-3-1.34-3.77a4.49,4.49,0,0,0-3-1,21.54,21.54,0,0,0-9.6,2.54c-2.13,1.17-3.12,2.4-3.12,3.84a2.3,2.3,0,0,0,2.4,2.4c2,0,3.33-1.37,3.63-3.53s0.31-2.37.62-3a2.55,2.55,0,0,1,2.33-1.37,1.78,1.78,0,0,1,1.54.82c0.34,0.55.48,1.58,0.48,3.91v1.78a50.37,50.37,0,0,0-6,2.09c-3.77,1.58-5,2.78-5,4.8,0,2.19,2,3.74,4.87,3.74a6.89,6.89,0,0,0,6.17-3.26c0.45,2.19,1.54,3.26,3.43,3.26s3.36-.75,5.73-2.74Zm-27.53-15.05a58.43,58.43,0,0,1-8.78,2.64l0.07,0.34a2.61,2.61,0,0,1,2.23,1c0.55,0.72.69,1.54,0.69,3.6v5.62c0,3.5-.31,3.94-2.74,4v0.34h11.55v-0.34c-2.43-.1-2.74-0.55-2.74-4v-4.29c0-3.05.1-3.87,0.62-4.8a1.24,1.24,0,0,1,1.06-.72,1.37,1.37,0,0,1,1.06.69,4.17,4.17,0,0,0,1,1.2,2.45,2.45,0,0,0,1.61.58,2.72,2.72,0,0,0,2.64-2.88,3,3,0,0,0-3.09-3c-2.23,0-3.81,1.61-5.18,5.25v-5.25Zm-16.32,0a58.44,58.44,0,0,1-8.78,2.64l0.07,0.34a2.61,2.61,0,0,1,2.23,1c0.55,0.72.69,1.54,0.69,3.6v5.62c0,3.5-.31,3.94-2.74,4v0.34h11.55v-0.34c-2.43-.1-2.74-0.55-2.74-4v-4.29c0-3.05.1-3.87,0.62-4.8a1.24,1.24,0,0,1,1.06-.72,1.37,1.37,0,0,1,1.06.69,4.17,4.17,0,0,0,1,1.2,2.45,2.45,0,0,0,1.61.58,2.72,2.72,0,0,0,2.64-2.88,3,3,0,0,0-3.09-3c-2.23,0-3.81,1.61-5.18,5.25v-5.25ZM2107.42,6406c0,1.58-.79,2.57-2.06,2.57s-2-1.13-2-3.19c0-2.61.93-3.7,4-4.7V6406Zm8.95,1.92a2.72,2.72,0,0,1-1.37.45,1.31,1.31,0,0,1-1.27-.72,4.8,4.8,0,0,1-.24-2.16v-7.89c0-2-.34-3-1.34-3.77a4.49,4.49,0,0,0-3-1,21.55,21.55,0,0,0-9.6,2.54c-2.13,1.17-3.12,2.4-3.12,3.84a2.3,2.3,0,0,0,2.4,2.4c2,0,3.33-1.37,3.63-3.53s0.31-2.37.62-3a2.55,2.55,0,0,1,2.33-1.37,1.78,1.78,0,0,1,1.54.82c0.34,0.55.48,1.58,0.48,3.91v1.78a50.41,50.41,0,0,0-6,2.09c-3.77,1.58-5,2.78-5,4.8,0,2.19,2,3.74,4.87,3.74a6.89,6.89,0,0,0,6.17-3.26c0.45,2.19,1.54,3.26,3.43,3.26s3.36-.75,5.73-2.74Zm-26-8.23,1.75-2.88c3.57-5.62,6.41-8.54,8.67-8.88v-0.34h-8.71v0.34c1,0.34,1.47,1.2,1.47,2.88a12.89,12.89,0,0,1-2.3,6.62l-1.17,1.89-3.91-6.48a6.47,6.47,0,0,1-1.27-3.26c0-.93.65-1.51,1.85-1.65v-0.34h-13.3v0.34c1.82,0.24,2.78,1.06,4.53,3.87l5.62,9.36v3.43c0,3.22-.1,3.84-0.62,4.56s-1.06.86-2.57,1v0.34h13.13v-0.34c-1.51-.1-2.09-0.34-2.57-1s-0.62-1.37-.62-4.56v-4.9Z" transform="translate(-2060.27 -6371.9)"/><path class="cls-2" d="M2241.44,6407.57a2.52,2.52,0,0,1-2.09,1.17c-2.06,0-2.95-2-2.95-6.76,0-5.63,1.17-8.68,3.33-8.68a1.7,1.7,0,0,1,1.72,1.92v12.35Zm0,3.33c3.88-1.27,5.28-1.72,8.61-2.61v-0.34c-2.16-.17-2.54-0.79-2.54-4.15v-19.18a77.46,77.46,0,0,1-9.06,2.4l0.07,0.38a2.45,2.45,0,0,1,2.23,1c0.55,0.72.69,1.51,0.69,3.57v1.34a5.15,5.15,0,0,0-2.13-.45c-5.18,0-9.33,4.46-9.33,10.09,0,4.6,2.64,8,6.24,8a6.79,6.79,0,0,0,5.21-2.74v2.74Zm-24.32-18a73.55,73.55,0,0,1-9.06,2.64l0.07,0.34a2.61,2.61,0,0,1,2.23,1c0.55,0.72.69,1.54,0.69,3.6v5.63c0,3.5-.31,3.95-2.74,4v0.34h10.43v-0.34c-1.44-.17-1.65-0.58-1.61-3.36v-10.09a4,4,0,0,1,2.61-1.2,1.76,1.76,0,0,1,1.47.86c0.31,0.58.38,1.2,0.38,3.94v6.48c0,2.78-.17,3.19-1.61,3.36v0.34h9.74v-0.34c-1.85-.17-2.09-0.55-2.06-3.36v-8.88c0-1.82-.21-2.81-0.79-3.57a4.18,4.18,0,0,0-3.5-1.44c-2.26,0-3.88.82-6.24,3.26v-3.26Zm-20.07,7c0-4.19,1.06-6.52,2.92-6.52,1.13,0,1.78.69,2.13,2.23a23.46,23.46,0,0,1,.24,4.29H2197Zm11.39,0.41a7.66,7.66,0,0,0-1.44-4,8.47,8.47,0,0,0-7-3.4,9.22,9.22,0,0,0-9.33,9.26,8.76,8.76,0,0,0,9.06,8.78,8.3,8.3,0,0,0,6.55-3,12.58,12.58,0,0,0,2.26-4.15l-0.31-.14a5.92,5.92,0,0,1-5.49,3c-3.77,0-5.66-2.13-5.69-6.38h11.35Zm-31.39-2.16h1.06c2.06,0,3,.27,3.84,1.13s1.3,2.54,1.3,4.87c0,4.15-1.23,6-4.08,6-1.78,0-2.13-.58-2.13-3.64v-8.34Zm0-.41V6388h0.82c1.72,0,2.57.24,3.26,0.89s1.2,2.06,1.2,3.95a6.19,6.19,0,0,1-.86,3.53c-0.62,1-1.44,1.3-3.53,1.3h-0.89Zm-9.95-10.09v0.34c1.51,0.1,2.13.34,2.57,1s0.62,1.34.62,4.56v11.15c0,3.22-.1,3.84-0.62,4.56s-1.06.86-2.57,1v0.34h12.83c6.48,0,10.53-2.47,10.53-6.48,0-2.06-1.17-3.7-3.36-4.77-1.37-.69-2.85-1-6.24-1.44a18.22,18.22,0,0,0,4.67-.69c2.2-.75,3.4-2.23,3.4-4.12s-1-3.12-3.12-4.12-4.56-1.27-9.71-1.27h-9Z" transform="translate(-2060.27 -6371.9)"/></svg>