<svg id="_24_Grid_Col" data-name="24 Grid Col" xmlns="http://www.w3.org/2000/svg" width="700.19" height="106.52" viewBox="0 0 700.19 106.52"><defs><style>.cls-1{fill:#fff;}</style></defs><title>logo-white</title><path class="cls-1" d="M1882.22,432.93c0,12.93.42,15.57,2.5,18.5,1.95,2.5,4.31,3.48,10.43,3.89v1.39h-53.26v-1.39c6.12-.42,8.62-1.39,10.43-3.89,2.09-2.92,2.5-5.42,2.5-18.5V419l-22.81-38c-7.09-11.4-11-14.74-18.36-15.71V364h54v1.39c-4.87.56-7.51,2.92-7.51,6.68,0,3.48,1.39,7,5.15,13.21l15.85,26.28,4.73-7.65c6.26-10.15,9.32-18.91,9.32-26.84,0-6.81-1.81-10.29-6-11.68V364h35.32v1.39c-9.18,1.39-20.72,13.21-35.18,36L1882.22,413v19.89Zm96.7,14.46c-9.6,8.07-16.13,11.12-23.22,11.12-7.65,0-12.1-4.31-13.91-13.21-6.67,9.32-14,13.21-25,13.21-11.68,0-19.75-6.26-19.75-15.16,0-8.2,5-13.07,20.3-19.47a204.35,204.35,0,0,1,24.47-8.48v-7.23c0-9.46-.56-13.63-1.95-15.85a7.21,7.21,0,0,0-6.26-3.34,10.35,10.35,0,0,0-9.46,5.56c-1.25,2.5-1.39,3.34-2.5,12.1S1914.82,421,1906.89,421a9.35,9.35,0,0,1-9.73-9.73c0-5.84,4-10.85,12.65-15.58,10.71-6.12,26.84-10.29,38.94-10.29,5.15,0,9,1.25,12.24,3.89,4,3.2,5.42,7.37,5.42,15.3v32c0,5.29.14,7.09,1,8.76s2.78,2.92,5.15,2.92c1.67,0,2.92-.42,5.56-1.81Zm-37.13-30.32c-12.65,4-16.41,8.48-16.41,19.05,0,8.34,2.78,12.93,8.07,12.93s8.34-4,8.34-10.43V417.08Zm65.91-10.43c5.56-14.74,12-21.28,21-21.28a12.2,12.2,0,0,1,12.52,12.1c0,6.67-4.73,11.68-10.71,11.68a9.93,9.93,0,0,1-6.54-2.36c-1.11-.83-1.11-0.83-4-4.87-1.53-1.95-2.78-2.78-4.31-2.78s-3.2,1-4.31,2.92c-2.09,3.75-2.5,7.09-2.5,19.47v17.38c0,14.18,1.25,16,11.12,16.41v1.39h-46.86v-1.39c9.87-.42,11.12-2.23,11.12-16.41V416.11c0-8.34-.56-11.68-2.78-14.6-1.95-2.64-4.45-3.75-9-4l-0.28-1.39c14.88-3.48,19.61-4.87,35.6-10.71v21.28Zm65.49,0c5.56-14.74,12-21.28,21-21.28a12.2,12.2,0,0,1,12.52,12.1c0,6.67-4.73,11.68-10.71,11.68a9.93,9.93,0,0,1-6.54-2.36c-1.11-.83-1.11-0.83-4-4.87-1.53-1.95-2.78-2.78-4.31-2.78s-3.2,1-4.31,2.92c-2.09,3.75-2.5,7.09-2.5,19.47v17.38c0,14.18,1.25,16,11.12,16.41v1.39h-46.86v-1.39c9.87-.42,11.12-2.23,11.12-16.41V416.11c0-8.34-.56-11.68-2.78-14.6-1.95-2.64-4.45-3.75-9-4l-0.28-1.39c14.88-3.48,19.61-4.87,35.6-10.71v21.28Zm112.35,40.74c-9.6,8.07-16.13,11.12-23.22,11.12-7.65,0-12.1-4.31-13.91-13.21-6.67,9.32-14,13.21-25,13.21-11.68,0-19.75-6.26-19.75-15.16,0-8.2,5-13.07,20.3-19.47a204.37,204.37,0,0,1,24.47-8.48v-7.23c0-9.46-.56-13.63-1.95-15.85a7.21,7.21,0,0,0-6.26-3.34,10.35,10.35,0,0,0-9.46,5.56c-1.25,2.5-1.39,3.34-2.5,12.1S2121.44,421,2113.52,421a9.35,9.35,0,0,1-9.73-9.73c0-5.84,4-10.85,12.65-15.58,10.71-6.12,26.84-10.29,38.94-10.29,5.15,0,9,1.25,12.24,3.89,4,3.2,5.42,7.37,5.42,15.3v32c0,5.29.14,7.09,1,8.76s2.78,2.92,5.15,2.92c1.67,0,2.92-.42,5.56-1.81Zm-37.13-30.32c-12.65,4-16.41,8.48-16.41,19.05,0,8.34,2.78,12.93,8.07,12.93s8.34-4,8.34-10.43V417.08ZM2218.64,364c20.86,0,31.43,1.39,39.35,5.15,8.48,4,12.65,9.6,12.65,16.69,0,7.65-4.87,13.63-13.77,16.69-4.87,1.53-10.43,2.36-18.91,2.78,13.77,1.67,19.75,3.06,25.31,5.84,8.9,4.31,13.63,11,13.63,19.33,0,16.27-16.41,26.28-42.69,26.28h-52v-1.39c6.12-.42,8.62-1.39,10.43-3.89,2.09-2.92,2.5-5.42,2.5-18.5V387.74c0-13.07-.42-15.58-2.5-18.5-1.81-2.5-4.31-3.48-10.43-3.89V364h36.43Zm7.51,40.88c8.48,0,11.82-1.25,14.32-5.28,2.36-3.62,3.48-8.07,3.48-14.32,0-7.65-1.53-12.79-4.87-16-2.78-2.64-6.26-3.61-13.21-3.61h-3.34v39.21h3.62Zm-3.62,35.46c0,12.38,1.39,14.74,8.62,14.74,11.54,0,16.55-7.37,16.55-24.2,0-9.46-1.81-16.13-5.28-19.75s-7.23-4.59-15.58-4.59h-4.31V440.3Zm81.9-25c0.14,17.24,7.79,25.87,23.08,25.87,10,0,16.55-3.48,22.25-12.1l1.25,0.56c-3.06,8.2-5.28,12.1-9.18,16.83-6.4,7.79-15.85,12.1-26.56,12.1-20.86,0-36.71-15.44-36.71-35.6a37.36,37.36,0,0,1,37.82-37.55c11.54,0,21.83,5,28.23,13.77,3.48,4.73,4.87,8.9,5.84,16.13h-46Zm21.28-1.67c0-9.32-.28-13.63-1-17.38-1.39-6.26-4-9-8.62-9-7.51,0-11.82,9.46-11.82,26.42h21.41Zm59.24-15c9.6-9.87,16.13-13.21,25.31-13.21,6.26,0,11.54,2.09,14.18,5.84,2.36,3.06,3.2,7.09,3.2,14.46v36c-0.14,11.4.83,12.93,8.34,13.63v1.39h-39.49v-1.39c5.84-.7,6.67-2.36,6.54-13.63V415.41c0-11.13-.28-13.63-1.53-16a7.14,7.14,0,0,0-6-3.48c-3.48,0-6.68,1.53-10.57,4.87V441.7c-0.14,11.26.7,12.93,6.54,13.63v1.39h-42.28v-1.39c9.87-.42,11.13-2.23,11.13-16.41V416.11c0-8.34-.56-11.68-2.78-14.6-1.95-2.64-4.45-3.75-9-4l-0.28-1.39a298.06,298.06,0,0,0,36.71-10.71v13.21Zm94,48.81c-6.67,7.65-13.49,11.12-21.14,11.12-14.6,0-25.31-13.63-25.31-32.26,0-22.81,16.83-40.88,37.82-40.88,3.2,0,4.87.42,8.62,1.81v-5.42c0-8.34-.56-11.54-2.78-14.46-1.95-2.78-4.45-3.89-9-4l-0.28-1.53a314,314,0,0,0,36.71-9.74v77.74c0,13.63,1.53,16.13,10.29,16.83V448c-13.49,3.62-19.19,5.42-34.9,10.57V447.4Zm0-52.43c0-4.73-2.64-7.79-7-7.79-8.76,0-13.49,12.38-13.49,35.18,0,19.33,3.61,27.4,12,27.4,3.34,0,5.28-1.11,8.48-4.73V395Z" transform="translate(-1813.66 -352)"/></svg>