<svg id="_24_Grid_Col" data-name="24 Grid Col" xmlns="http://www.w3.org/2000/svg" width="112.57" height="16.76" viewBox="0 0 112.57 16.76"><title>logo</title><path d="M115.54,1248.58v0.22m-5.38-2.84a1.39,1.39,0,0,1-1.31,1.64c-0.83,0-1.27-.72-1.27-2,0-1.66.59-2.36,2.58-3V1246Zm5.71,1.22a1.73,1.73,0,0,1-.87.28,0.83,0.83,0,0,1-.81-0.46,3.06,3.06,0,0,1-.15-1.38v-5a2.68,2.68,0,0,0-.85-2.4,2.86,2.86,0,0,0-1.92-.61,13.74,13.74,0,0,0-6.12,1.62c-1.36.74-2,1.53-2,2.45a1.47,1.47,0,0,0,1.53,1.53,2.34,2.34,0,0,0,2.32-2.25,5,5,0,0,1,.39-1.9,1.63,1.63,0,0,1,1.49-.87,1.13,1.13,0,0,1,1,.52,5.35,5.35,0,0,1,.31,2.49v1.14a32.12,32.12,0,0,0-3.85,1.33c-2.4,1-3.19,1.77-3.19,3.06s1.27,2.38,3.1,2.38a4.4,4.4,0,0,0,3.93-2.08c0.28,1.4,1,2.08,2.19,2.08s2.14-.48,3.65-1.75Zm-17.55-9.6a37.26,37.26,0,0,1-5.6,1.68l0,0.22a1.67,1.67,0,0,1,1.42.63,3.5,3.5,0,0,1,.44,2.3V1246c0,2.23-.2,2.51-1.75,2.58v0.22h7.37v-0.22c-1.55-.07-1.75-0.35-1.75-2.58v-2.73c0-1.95.07-2.47,0.39-3.06a0.79,0.79,0,0,1,.68-0.46,0.87,0.87,0,0,1,.68.44,2.66,2.66,0,0,0,.63.77,1.56,1.56,0,0,0,1,.37,1.74,1.74,0,0,0,1.68-1.84,1.92,1.92,0,0,0-2-1.9c-1.42,0-2.43,1-3.3,3.34v-3.34Zm-10.41,0a37.26,37.26,0,0,1-5.6,1.68l0,0.22a1.66,1.66,0,0,1,1.42.63,3.5,3.5,0,0,1,.44,2.3V1246c0,2.23-.2,2.51-1.75,2.58v0.22h7.37v-0.22c-1.55-.07-1.75-0.35-1.75-2.58v-2.73c0-1.95.07-2.47,0.39-3.06a0.79,0.79,0,0,1,.68-0.46,0.87,0.87,0,0,1,.68.44,2.66,2.66,0,0,0,.63.77,1.56,1.56,0,0,0,1,.37,1.74,1.74,0,0,0,1.68-1.84,1.92,1.92,0,0,0-2-1.9c-1.42,0-2.43,1-3.3,3.34v-3.34ZM77.48,1246a1.39,1.39,0,0,1-1.31,1.64c-0.83,0-1.27-.72-1.27-2,0-1.66.59-2.36,2.58-3V1246Zm5.71,1.22a1.73,1.73,0,0,1-.87.28,0.83,0.83,0,0,1-.81-0.46,3.06,3.06,0,0,1-.15-1.38v-5a2.68,2.68,0,0,0-.85-2.4,2.86,2.86,0,0,0-1.92-.61,13.74,13.74,0,0,0-6.12,1.62c-1.36.74-2,1.53-2,2.45a1.47,1.47,0,0,0,1.53,1.53,2.34,2.34,0,0,0,2.32-2.25,5,5,0,0,1,.39-1.9,1.63,1.63,0,0,1,1.49-.87,1.13,1.13,0,0,1,1,.52,5.35,5.35,0,0,1,.31,2.49v1.14a32.14,32.14,0,0,0-3.85,1.33c-2.4,1-3.19,1.77-3.19,3.06s1.27,2.38,3.1,2.38a4.4,4.4,0,0,0,3.93-2.08c0.28,1.4,1,2.08,2.19,2.08s2.14-.48,3.65-1.75Zm-16.57-5.25,1.11-1.84c2.27-3.58,4.09-5.44,5.53-5.66v-0.22H67.71v0.22c0.66,0.22.94,0.77,0.94,1.84a8.22,8.22,0,0,1-1.46,4.22l-0.74,1.2L64,1237.56a4.12,4.12,0,0,1-.81-2.08,1.1,1.1,0,0,1,1.18-1v-0.22H55.84v0.22c1.16,0.15,1.77.68,2.89,2.47l3.58,6v2.19c0,2.05-.07,2.45-0.39,2.91a1.89,1.89,0,0,1-1.64.61v0.22h8.37v-0.22A1.92,1.92,0,0,1,67,1248c-0.33-.46-0.39-0.87-0.39-2.91v-3.13Z" transform="translate(-55.84 -1232.32)"/><path d="M162.92,1246.95a1.61,1.61,0,0,1-1.33.74c-1.31,0-1.88-1.27-1.88-4.31,0-3.59.74-5.53,2.12-5.53a1.08,1.08,0,0,1,1.09,1.22v7.87Zm0,2.12c2.47-.81,3.37-1.09,5.49-1.66v-0.22c-1.38-.11-1.62-0.5-1.62-2.65v-12.23a49.39,49.39,0,0,1-5.77,1.53l0,0.24a1.56,1.56,0,0,1,1.42.63,3.43,3.43,0,0,1,.44,2.27v0.85a3.28,3.28,0,0,0-1.36-.28,6.17,6.17,0,0,0-5.95,6.43c0,2.93,1.68,5.07,4,5.07a4.33,4.33,0,0,0,3.32-1.75v1.75Zm-15.51-11.5a46.9,46.9,0,0,1-5.77,1.68l0,0.22a1.67,1.67,0,0,1,1.42.63,3.5,3.5,0,0,1,.44,2.3V1246c0,2.23-.2,2.52-1.75,2.58v0.22h6.65v-0.22c-0.92-.11-1-0.37-1-2.14V1240a2.54,2.54,0,0,1,1.66-.77,1.12,1.12,0,0,1,.94.55c0.2,0.37.24,0.77,0.24,2.52v4.13c0,1.77-.11,2-1,2.14v0.22h6.21v-0.22c-1.18-.11-1.33-0.35-1.31-2.14v-5.66a3.53,3.53,0,0,0-.5-2.27,2.67,2.67,0,0,0-2.23-.92c-1.44,0-2.47.52-4,2.08v-2.08ZM134.62,1242c0-2.67.68-4.16,1.86-4.16,0.72,0,1.14.44,1.36,1.42A15,15,0,0,1,138,1242h-3.37Zm7.26,0.26a4.89,4.89,0,0,0-.92-2.54,5.4,5.4,0,0,0-4.44-2.17,5.88,5.88,0,0,0-5.95,5.91,5.58,5.58,0,0,0,5.77,5.6,5.29,5.29,0,0,0,4.18-1.9,8,8,0,0,0,1.44-2.65l-0.2-.09a3.77,3.77,0,0,1-3.5,1.9c-2.41,0-3.61-1.36-3.63-4.07h7.24Zm-20-1.38h0.68a3,3,0,0,1,2.45.72,4.52,4.52,0,0,1,.83,3.11c0,2.65-.79,3.81-2.6,3.81-1.14,0-1.36-.37-1.36-2.32v-5.31Zm0-.26v-6.17h0.52a2.72,2.72,0,0,1,2.08.57,3.33,3.33,0,0,1,.77,2.52,4,4,0,0,1-.55,2.25c-0.39.63-.92,0.83-2.25,0.83h-0.57Zm-6.34-6.43v0.22a1.9,1.9,0,0,1,1.64.61c0.33,0.46.39,0.85,0.39,2.91V1245c0,2.06-.07,2.45-0.39,2.91a1.9,1.9,0,0,1-1.64.61v0.22h8.18c4.13,0,6.71-1.57,6.71-4.13a3.33,3.33,0,0,0-2.14-3,11.56,11.56,0,0,0-4-.92,11.62,11.62,0,0,0,3-.44,2.79,2.79,0,0,0,2.17-2.62,2.9,2.9,0,0,0-2-2.62c-1.25-.59-2.91-0.81-6.19-0.81h-5.73Z" transform="translate(-55.84 -1232.32)"/></svg>