<svg id="_24_Grid_Col" data-name="24 Grid Col" xmlns="http://www.w3.org/2000/svg" width="130.97" height="34.68" viewBox="0 0 130.97 34.68"><title>logo-with-tag</title><path d="M2117.27,7154.25a3.76,3.76,0,0,1,2.42.88,3.48,3.48,0,0,1,0,5.46,3.9,3.9,0,0,1-4.94,0,3.49,3.49,0,0,1,0-5.46A4,4,0,0,1,2117.27,7154.25Zm-0.07.14a1.16,1.16,0,0,0-.88.4q-0.62.67-.62,3.08a7.63,7.63,0,0,0,.36,2.65,1.3,1.3,0,0,0,.52.65,1.26,1.26,0,0,0,1.56-.22q0.62-.67.62-3a7.7,7.7,0,0,0-.35-2.69,1.33,1.33,0,0,0-.47-0.61A1.26,1.26,0,0,0,2117.2,7154.39Z" transform="translate(-2097.17 -7128.52)"/><path d="M2123.9,7157a6.05,6.05,0,0,1,.6-0.54,2.13,2.13,0,0,1,1.3-.45,1.23,1.23,0,0,1,1.06.44,1.88,1.88,0,0,1,.24,1.09v2.69q0,0.41,0,.55a0.54,0.54,0,0,0,.61.48v0.1h-3v-0.1a0.46,0.46,0,0,0,.43-0.25,2.89,2.89,0,0,0,.06-0.78v-2a7.44,7.44,0,0,0,0-1,0.57,0.57,0,0,0-.24-0.4,0.54,0.54,0,0,0-.29-0.09,1.25,1.25,0,0,0-.79.37v3.06a2.89,2.89,0,0,0,.06.78,0.46,0.46,0,0,0,.43.25v0.1h-3.17v-0.1a0.9,0.9,0,0,0,.68-0.23,1,1,0,0,0,.14-0.48c0-.08,0-0.26,0-0.52v-1.71a3.92,3.92,0,0,0-.07-0.8,0.79,0.79,0,0,0-.82-0.59v-0.11a24.56,24.56,0,0,0,2.74-.8v1Z" transform="translate(-2097.17 -7128.52)"/><path d="M2133,7156.13h1.31l-0.26.49H2133v3a1.39,1.39,0,0,0,.18.81,0.79,0.79,0,0,0,.68.29,1.93,1.93,0,0,0,.61-0.12l0.05,0.09a7,7,0,0,1-.64.42,2.52,2.52,0,0,1-1.22.36,1.57,1.57,0,0,1-1-.34,1.13,1.13,0,0,1-.37-0.54,3.22,3.22,0,0,1-.1-0.86v-3.11h-1.28a7.65,7.65,0,0,0,1.82-1.16,7.48,7.48,0,0,0,1.3-1.44v2.12Z" transform="translate(-2097.17 -7128.52)"/><path d="M2137,7157a9.47,9.47,0,0,1,.76-0.57,2.41,2.41,0,0,1,1.33-.46,1.05,1.05,0,0,1,.87.36,1.07,1.07,0,0,1,.22.47,3.41,3.41,0,0,1,.05.63v2.76c0,0.27,0,.45,0,0.55a0.54,0.54,0,0,0,.61.48v0.1h-3v-0.1a0.46,0.46,0,0,0,.43-0.25,2.91,2.91,0,0,0,.06-0.78v-2.49a1.26,1.26,0,0,0-.13-0.68,0.53,0.53,0,0,0-.45-0.23,1.33,1.33,0,0,0-.81.4v3a2.89,2.89,0,0,0,.06.78,0.46,0.46,0,0,0,.43.25v0.1h-3.17v-0.1a0.9,0.9,0,0,0,.68-0.23,1,1,0,0,0,.14-0.48c0-.08,0-0.26,0-0.52v-4.28a3.92,3.92,0,0,0-.07-0.8,0.78,0.78,0,0,0-.82-0.59v-0.11a22,22,0,0,0,2.74-.74V7157Z" transform="translate(-2097.17 -7128.52)"/><path d="M2146.6,7158.22h-3.45q0,1.95,1.73,1.95a1.92,1.92,0,0,0,1.12-.32,2.25,2.25,0,0,0,.54-0.6l0.1,0a4.53,4.53,0,0,1-.69,1.26,2.44,2.44,0,0,1-2,.91,2.69,2.69,0,0,1-2-.82,2.56,2.56,0,0,1-.74-1.85,2.66,2.66,0,0,1,1-2.12,2.77,2.77,0,0,1,1.87-.69,2.66,2.66,0,0,1,1.44.4,2.34,2.34,0,0,1,.94,1.12A2.91,2.91,0,0,1,2146.6,7158.22Zm-1.85-.12a7.55,7.55,0,0,0-.07-1.26,0.7,0.7,0,0,0-.65-0.71,0.93,0.93,0,0,0-.79,1,5,5,0,0,0-.09,1h1.6Z" transform="translate(-2097.17 -7128.52)"/><path d="M2154.9,7158.22h-3.45q0,1.95,1.73,1.95a1.92,1.92,0,0,0,1.12-.32,2.25,2.25,0,0,0,.54-0.6l0.1,0a4.53,4.53,0,0,1-.69,1.26,2.44,2.44,0,0,1-2,.91,2.69,2.69,0,0,1-2-.82,2.56,2.56,0,0,1-.74-1.85,2.66,2.66,0,0,1,1-2.12,2.77,2.77,0,0,1,1.87-.69,2.66,2.66,0,0,1,1.44.4,2.34,2.34,0,0,1,.94,1.12A2.91,2.91,0,0,1,2154.9,7158.22Zm-1.85-.12a7.55,7.55,0,0,0-.07-1.26,0.7,0.7,0,0,0-.65-0.71,0.93,0.93,0,0,0-.79,1,5,5,0,0,0-.09,1h1.6Z" transform="translate(-2097.17 -7128.52)"/><path d="M2158.78,7161.47v-0.83a2.12,2.12,0,0,1-1.59.83,1.65,1.65,0,0,1-1.15-.46,2.28,2.28,0,0,1-.6-1,3.16,3.16,0,0,1-.15-1,3,3,0,0,1,.92-2.26,2.66,2.66,0,0,1,1.92-.81,1.79,1.79,0,0,1,.65.14v-0.4a3.48,3.48,0,0,0-.07-0.8,0.78,0.78,0,0,0-.82-0.59l0-.11a21.06,21.06,0,0,0,2.75-.74v5.83a2.52,2.52,0,0,0,.12,1,0.52,0.52,0,0,0,.34.26l0.31,0v0.1Q2160.15,7161,2158.78,7161.47Zm0-1v-3.75a0.57,0.57,0,0,0-.17-0.46,0.52,0.52,0,0,0-.35-0.13,0.65,0.65,0,0,0-.4.14,0.93,0.93,0,0,0-.29.38,5.31,5.31,0,0,0-.33,2.12,4.71,4.71,0,0,0,.18,1.49,0.74,0.74,0,0,0,.73.56,0.67,0.67,0,0,0,.45-0.17A1.44,1.44,0,0,0,2158.78,7160.46Z" transform="translate(-2097.17 -7128.52)"/><path d="M2162.93,7158.73a0.52,0.52,0,0,0-.23.4,0.45,0.45,0,0,0,.32.46,2.91,2.91,0,0,0,.92.1l0.69,0,0.7,0a2.12,2.12,0,0,1,1.32.39,1.35,1.35,0,0,1,.59,1.12,1.47,1.47,0,0,1-.2.71,1.94,1.94,0,0,1-.52.61,3.51,3.51,0,0,1-1.13.54,5.06,5.06,0,0,1-1.42.19,5.12,5.12,0,0,1-1.56-.22,1.26,1.26,0,0,1-.55-0.33,0.69,0.69,0,0,1-.2-0.48,1.25,1.25,0,0,1,1.08-1,1.83,1.83,0,0,1-.72-0.3,0.92,0.92,0,0,1-.42-0.76,1.83,1.83,0,0,1,1.21-1.47,1.64,1.64,0,0,1-.6-0.31,1.11,1.11,0,0,1-.4-0.86,1.15,1.15,0,0,1,.43-0.85,3,3,0,0,1,1.94-.68c0-.09,0-0.15,0-0.2a2,2,0,0,1,.24-1.05,1.16,1.16,0,0,1,1-.59,1,1,0,0,1,.66.24,0.8,0.8,0,0,1,.28.62,0.83,0.83,0,0,1-.19.56,0.69,0.69,0,0,1-.54.25,0.87,0.87,0,0,1-.62-0.32,0.71,0.71,0,0,0-.4-0.27q-0.35,0-.35.66v0.1h0.1a2.93,2.93,0,0,1,1.27.29,1.29,1.29,0,0,1,.9,1.12,1.11,1.11,0,0,1-.16.55,1.48,1.48,0,0,1-.43.47,3.08,3.08,0,0,1-1.81.51A4.12,4.12,0,0,1,2162.93,7158.73Zm0.06,2.52a0.67,0.67,0,0,0-.31.58,1,1,0,0,0,.64.93,2.72,2.72,0,0,0,1.23.26,2,2,0,0,0,1.15-.29,0.81,0.81,0,0,0,.41-0.7,0.64,0.64,0,0,0-.31-0.57,1.58,1.58,0,0,0-.82-0.19l-0.6,0-0.57,0A5.55,5.55,0,0,1,2163,7161.24Zm1.17-5.12q-0.63,0-.63,1.23a2.7,2.7,0,0,0,.17,1.1,0.54,0.54,0,0,0,.53.33,0.51,0.51,0,0,0,.51-0.32,2.5,2.5,0,0,0,.13-0.93Q2164.86,7156.12,2164.15,7156.12Z" transform="translate(-2097.17 -7128.52)"/><path d="M2172.72,7158.22h-3.45q0,1.95,1.74,1.95a1.92,1.92,0,0,0,1.12-.32,2.24,2.24,0,0,0,.54-0.6l0.1,0a4.54,4.54,0,0,1-.69,1.26,2.44,2.44,0,0,1-2,.91,2.69,2.69,0,0,1-2-.82,2.55,2.55,0,0,1-.74-1.85,2.66,2.66,0,0,1,1-2.12,2.77,2.77,0,0,1,1.87-.69,2.66,2.66,0,0,1,1.45.4,2.35,2.35,0,0,1,.94,1.12A2.91,2.91,0,0,1,2172.72,7158.22Zm-1.85-.12a7.5,7.5,0,0,0-.07-1.26,0.7,0.7,0,0,0-.65-0.71,0.93,0.93,0,0,0-.79,1,4.94,4.94,0,0,0-.09,1h1.6Z" transform="translate(-2097.17 -7128.52)"/><path d="M2178.54,7156a2.86,2.86,0,0,1,1.89.69,2.69,2.69,0,0,1,0,4.1,3,3,0,0,1-3.86,0,2.57,2.57,0,0,1-1-2,2.54,2.54,0,0,1,1-2.06A3,3,0,0,1,2178.54,7156Zm-0.05.14a0.63,0.63,0,0,0-.56.34,5.34,5.34,0,0,0-.29,2.27,8.84,8.84,0,0,0,.17,2,0.9,0.9,0,0,0,.26.45,0.64,0.64,0,0,0,.44.17,0.65,0.65,0,0,0,.58-0.34,5.19,5.19,0,0,0,.29-2.23,8.8,8.8,0,0,0-.17-2A0.71,0.71,0,0,0,2178.49,7156.12Z" transform="translate(-2097.17 -7128.52)"/><path d="M2185.43,7156.11l-0.28.49h-0.87V7160a4.69,4.69,0,0,0,0,.75,0.51,0.51,0,0,0,.32.4,2,2,0,0,0,.6.08v0.1h-3.63v-0.1a0.9,0.9,0,0,0,.68-0.23,1,1,0,0,0,.14-0.48c0-.08,0-0.26,0-0.52v-3.39h-0.61l1.19-1.51a7.66,7.66,0,0,1,1.19-1.28,1.5,1.5,0,0,1,.93-0.27,2.19,2.19,0,0,1,1.23.33,1.18,1.18,0,0,1,.62,1,0.74,0.74,0,0,1-.21.53,0.8,0.8,0,0,1-.6.23,0.9,0.9,0,0,1-.54-0.17,0.81,0.81,0,0,1-.32-0.54,4.14,4.14,0,0,1,0-.49,1.51,1.51,0,0,0-.1-0.56,0.33,0.33,0,0,0-.3-0.19,0.51,0.51,0,0,0-.43.28,1.46,1.46,0,0,0-.15.75v1.38h1.15Z" transform="translate(-2097.17 -7128.52)"/><path d="M2193.82,7161.33l-2.17-3.52v1.73a7.28,7.28,0,0,0,.05,1.08,0.63,0.63,0,0,0,.41.51,2.1,2.1,0,0,0,.51.09v0.1h-4v-0.1a1,1,0,0,0,.78-0.3,1.14,1.14,0,0,0,.17-0.6q0-.15,0-0.79v-3.37a7.34,7.34,0,0,0-.05-1.08,0.63,0.63,0,0,0-.41-0.51,2.08,2.08,0,0,0-.51-0.09v-0.1h4v0.1a1,1,0,0,0-.78.29,1.18,1.18,0,0,0-.17.61q0,0.14,0,.79v1.57q0.42-.44,1.08-1.21a4.33,4.33,0,0,0,.61-0.86,1.74,1.74,0,0,0,.2-0.78,0.44,0.44,0,0,0-.19-0.4v-0.1h2.83v0.1a5.29,5.29,0,0,0-1.78.77,8,8,0,0,0-1.43,1.17l1.49,2.23,0.94,1.38a2.32,2.32,0,0,0,1.73,1.19v0.1h-3.31Z" transform="translate(-2097.17 -7128.52)"/><path d="M2202.32,7158.22h-3.45q0,1.95,1.74,1.95a1.92,1.92,0,0,0,1.12-.32,2.24,2.24,0,0,0,.54-0.6l0.1,0a4.54,4.54,0,0,1-.69,1.26,2.44,2.44,0,0,1-2,.91,2.69,2.69,0,0,1-2-.82,2.55,2.55,0,0,1-.74-1.85,2.66,2.66,0,0,1,1-2.12,2.77,2.77,0,0,1,1.87-.69,2.66,2.66,0,0,1,1.45.4,2.35,2.35,0,0,1,.94,1.12A2.91,2.91,0,0,1,2202.32,7158.22Zm-1.85-.12a7.5,7.5,0,0,0-.07-1.26,0.7,0.7,0,0,0-.65-0.71,0.93,0.93,0,0,0-.79,1,4.94,4.94,0,0,0-.09,1h1.6Z" transform="translate(-2097.17 -7128.52)"/><path d="M2206.42,7159.35l0.8-1.7a6.35,6.35,0,0,0-.53-1,0.82,0.82,0,0,0-.32-0.31,1.48,1.48,0,0,0-.3-0.07v-0.1h3.28v0.1a0.43,0.43,0,0,0-.44.44,1.65,1.65,0,0,0,.15.55l0.29,0.66,0.67,1.47q0.29-.61.41-0.9a3.44,3.44,0,0,0,.31-1.35,1.09,1.09,0,0,0-.16-0.65,0.72,0.72,0,0,0-.38-0.23v-0.1h2.36v0.1q-1,.24-2.06,2.45l-1.4,2.94-1.78-3.83-1.8,3.83-2-4.13a4.93,4.93,0,0,0-.48-0.85,1.06,1.06,0,0,0-.46-0.36,1.37,1.37,0,0,0-.29,0v-0.1h3.23v0.1a0.3,0.3,0,0,0-.3.32,1.94,1.94,0,0,0,.23.71Z" transform="translate(-2097.17 -7128.52)"/><path d="M2166.62,7147.44v0.25m-6.26-3.31c0,1.17-.58,1.91-1.53,1.91s-1.48-.84-1.48-2.37c0-1.93.69-2.75,3-3.48v3.94Zm6.64,1.42a2,2,0,0,1-1,.33,1,1,0,0,1-.94-0.53,3.56,3.56,0,0,1-.18-1.6v-5.85c0-1.45-.25-2.21-1-2.8a3.33,3.33,0,0,0-2.24-.71,16,16,0,0,0-7.12,1.88c-1.58.86-2.31,1.78-2.31,2.85a1.71,1.71,0,0,0,1.78,1.78,2.73,2.73,0,0,0,2.7-2.62,5.78,5.78,0,0,1,.46-2.21,1.89,1.89,0,0,1,1.73-1,1.32,1.32,0,0,1,1.14.61,6.23,6.23,0,0,1,.36,2.9v1.32a37.37,37.37,0,0,0-4.48,1.55c-2.8,1.17-3.71,2.06-3.71,3.56s1.47,2.77,3.61,2.77a5.11,5.11,0,0,0,4.58-2.42c0.33,1.63,1.14,2.42,2.54,2.42s2.49-.56,4.25-2Zm-20.42-11.16a43.34,43.34,0,0,1-6.51,2l0.05,0.25a1.94,1.94,0,0,1,1.65.74c0.41,0.53.51,1.14,0.51,2.67v4.17c0,2.59-.23,2.92-2,3v0.25h8.57v-0.25c-1.81-.08-2-0.41-2-3v-3.18c0-2.26.08-2.87,0.46-3.56a0.92,0.92,0,0,1,.79-0.53,1,1,0,0,1,.79.51,3.09,3.09,0,0,0,.74.89,1.82,1.82,0,0,0,1.2.43,2,2,0,0,0,2-2.14,2.23,2.23,0,0,0-2.29-2.21c-1.65,0-2.82,1.2-3.84,3.89v-3.89Zm-12.11,0a43.35,43.35,0,0,1-6.51,2l0.05,0.25a1.94,1.94,0,0,1,1.65.74c0.41,0.53.51,1.14,0.51,2.67v4.17c0,2.59-.23,2.92-2,3v0.25h8.57v-0.25c-1.81-.08-2-0.41-2-3v-3.18c0-2.26.08-2.87,0.46-3.56a0.92,0.92,0,0,1,.79-0.53,1,1,0,0,1,.79.51,3.09,3.09,0,0,0,.74.89,1.82,1.82,0,0,0,1.2.43,2,2,0,0,0,2-2.14,2.23,2.23,0,0,0-2.29-2.21c-1.65,0-2.82,1.2-3.84,3.89v-3.89Zm-12.13,9.74c0,1.17-.58,1.91-1.53,1.91s-1.47-.84-1.47-2.37c0-1.93.69-2.75,3-3.48v3.94Zm6.64,1.42a2,2,0,0,1-1,.33,1,1,0,0,1-.94-0.53,3.56,3.56,0,0,1-.18-1.6v-5.85c0-1.45-.25-2.21-1-2.8a3.33,3.33,0,0,0-2.24-.71,16,16,0,0,0-7.12,1.88c-1.58.86-2.31,1.78-2.31,2.85a1.71,1.71,0,0,0,1.78,1.78,2.73,2.73,0,0,0,2.7-2.62,5.78,5.78,0,0,1,.46-2.21,1.89,1.89,0,0,1,1.73-1,1.32,1.32,0,0,1,1.14.61,6.23,6.23,0,0,1,.36,2.9v1.32a37.39,37.39,0,0,0-4.48,1.55c-2.8,1.17-3.71,2.06-3.71,3.56s1.48,2.77,3.61,2.77a5.11,5.11,0,0,0,4.58-2.42c0.33,1.63,1.14,2.42,2.54,2.42s2.49-.56,4.25-2Zm-19.27-6.1,1.3-2.14c2.64-4.17,4.76-6.33,6.43-6.59v-0.25H2111V7131c0.76,0.25,1.09.89,1.09,2.14a9.56,9.56,0,0,1-1.7,4.91l-0.86,1.4-2.9-4.81a4.8,4.8,0,0,1-.94-2.42A1.28,1.28,0,0,1,2107,7131v-0.25h-9.87V7131c1.35,0.18,2.06.79,3.36,2.87l4.17,6.94v2.54c0,2.39-.08,2.85-0.46,3.38s-0.79.64-1.91,0.71v0.25h9.74v-0.25a2.24,2.24,0,0,1-1.91-.71c-0.38-.53-0.46-1-0.46-3.38v-3.64Z" transform="translate(-2097.17 -7128.52)"/><path d="M2221.75,7145.55a1.87,1.87,0,0,1-1.55.87c-1.53,0-2.19-1.48-2.19-5,0-4.17.87-6.44,2.47-6.44a1.26,1.26,0,0,1,1.27,1.42v9.16Zm0,2.47c2.88-.94,3.92-1.27,6.39-1.93v-0.25c-1.6-.13-1.88-0.59-1.88-3.08v-14.22a57.46,57.46,0,0,1-6.72,1.78l0.05,0.28a1.82,1.82,0,0,1,1.65.74c0.41,0.53.51,1.12,0.51,2.65v1a3.82,3.82,0,0,0-1.58-.33,7.18,7.18,0,0,0-6.92,7.48c0,3.41,2,5.9,4.63,5.9a5,5,0,0,0,3.87-2v2Zm-18-13.38a54.56,54.56,0,0,1-6.72,2l0.05,0.25a1.94,1.94,0,0,1,1.65.74c0.41,0.53.51,1.15,0.51,2.67v4.17c0,2.6-.23,2.93-2,3v0.25h7.74v-0.25c-1.07-.13-1.22-0.43-1.2-2.49v-7.48a3,3,0,0,1,1.93-.89,1.31,1.31,0,0,1,1.09.64c0.23,0.43.28,0.89,0.28,2.93v4.81c0,2.06-.13,2.37-1.2,2.49v0.25H2213v-0.25c-1.37-.13-1.55-0.41-1.53-2.49v-6.59a4.11,4.11,0,0,0-.59-2.65,3.1,3.1,0,0,0-2.6-1.07c-1.68,0-2.88.61-4.63,2.42v-2.42Zm-14.89,5.17c0-3.1.79-4.83,2.16-4.83,0.84,0,1.32.51,1.58,1.65a17.4,17.4,0,0,1,.18,3.18h-3.92Zm8.45,0.31a5.69,5.69,0,0,0-1.07-3,6.29,6.29,0,0,0-5.17-2.52,6.84,6.84,0,0,0-6.92,6.87,6.5,6.5,0,0,0,6.72,6.51,6.16,6.16,0,0,0,4.86-2.21,9.33,9.33,0,0,0,1.68-3.08l-0.23-.1a4.39,4.39,0,0,1-4.07,2.21c-2.8,0-4.2-1.58-4.22-4.73h8.42Zm-23.28-1.6h0.79c1.53,0,2.24.2,2.85,0.84a5.25,5.25,0,0,1,1,3.61c0,3.08-.92,4.43-3,4.43-1.32,0-1.58-.43-1.58-2.7v-6.18Zm0-.31V7131h0.61a3.17,3.17,0,0,1,2.42.66,3.88,3.88,0,0,1,.89,2.93,4.59,4.59,0,0,1-.64,2.62c-0.46.74-1.07,1-2.62,1H2174Zm-7.38-7.48V7131c1.12,0.08,1.58.25,1.91,0.71s0.46,1,.46,3.38v8.27c0,2.39-.08,2.85-0.46,3.38s-0.79.64-1.91,0.71v0.25h9.52c4.81,0,7.81-1.83,7.81-4.81a3.87,3.87,0,0,0-2.49-3.54,2.7,2.7,0,1,1-1.17-1.58,3.24,3.24,0,0,0,2.52-3.05c0-1.3-.76-2.32-2.32-3.05s-3.38-.94-7.2-0.94h-6.67Z" transform="translate(-2097.17 -7128.52)"/></svg>