<svg id="_24_Grid_Col" data-name="24 Grid Col" xmlns="http://www.w3.org/2000/svg" width="187.07" height="49.54" viewBox="0 0 187.07 49.54"><title>logo-with-tag</title><path d="M2098.87,1265.55a5.37,5.37,0,0,1,3.46,1.26,5,5,0,0,1,0,7.8,5.57,5.57,0,0,1-7,0,5,5,0,0,1,0-7.8A5.64,5.64,0,0,1,2098.87,1265.55Zm-0.1.2a1.65,1.65,0,0,0-1.26.57q-0.89,1-.89,4.4a10.88,10.88,0,0,0,.51,3.78,1.85,1.85,0,0,0,.74.92,1.8,1.8,0,0,0,2.23-.31q0.89-1,.89-4.34a11,11,0,0,0-.5-3.84,1.9,1.9,0,0,0-.68-0.87A1.8,1.8,0,0,0,2098.77,1265.74Z" transform="translate(-2070.15 -1228.8)"/><path d="M2108.34,1269.44a8.64,8.64,0,0,1,.86-0.78,3,3,0,0,1,1.86-.64,1.76,1.76,0,0,1,1.52.63,2.69,2.69,0,0,1,.34,1.56V1274q0,0.58,0,.78a0.77,0.77,0,0,0,.87.68v0.15h-4.22v-0.15a0.65,0.65,0,0,0,.61-0.36,4.12,4.12,0,0,0,.09-1.11v-2.81a10.73,10.73,0,0,0-.05-1.39,0.81,0.81,0,0,0-.34-0.57,0.77,0.77,0,0,0-.42-0.13,1.79,1.79,0,0,0-1.13.52V1274a4.12,4.12,0,0,0,.09,1.11,0.66,0.66,0,0,0,.61.36v0.15h-4.52v-0.15a1.29,1.29,0,0,0,1-.33,1.35,1.35,0,0,0,.2-0.68q0-.17,0-0.75v-2.44a5.58,5.58,0,0,0-.09-1.15,1.12,1.12,0,0,0-1.18-.84v-0.15a34.9,34.9,0,0,0,3.92-1.15v1.42Z" transform="translate(-2070.15 -1228.8)"/><path d="M2121.39,1268.23h1.88l-0.37.7h-1.5v4.29a2,2,0,0,0,.25,1.16,1.13,1.13,0,0,0,1,.41,2.75,2.75,0,0,0,.86-0.17l0.07,0.12a10.16,10.16,0,0,1-.92.6,3.6,3.6,0,0,1-1.74.51,2.24,2.24,0,0,1-1.48-.48,1.61,1.61,0,0,1-.52-0.78,4.58,4.58,0,0,1-.14-1.23v-4.45h-1.83a10.93,10.93,0,0,0,2.6-1.66,10.69,10.69,0,0,0,1.86-2.06v3Z" transform="translate(-2070.15 -1228.8)"/><path d="M2127,1269.51a13.27,13.27,0,0,1,1.09-.82,3.44,3.44,0,0,1,1.9-.66,1.5,1.5,0,0,1,1.24.51,1.52,1.52,0,0,1,.32.68,4.92,4.92,0,0,1,.07.9V1274q0,0.58,0,.78a0.77,0.77,0,0,0,.87.68v0.15h-4.22v-0.15a0.66,0.66,0,0,0,.61-0.36,4.18,4.18,0,0,0,.09-1.11v-3.55a1.8,1.8,0,0,0-.19-1,0.75,0.75,0,0,0-.64-0.33,1.89,1.89,0,0,0-1.16.57V1274a4.12,4.12,0,0,0,.09,1.11,0.66,0.66,0,0,0,.61.36v0.15h-4.52v-0.15a1.29,1.29,0,0,0,1-.33,1.35,1.35,0,0,0,.2-0.68q0-.17,0-0.75v-6.11a5.58,5.58,0,0,0-.09-1.15,1.12,1.12,0,0,0-1.18-.84v-0.15a31.43,31.43,0,0,0,3.92-1.05v5.06Z" transform="translate(-2070.15 -1228.8)"/><path d="M2140.77,1271.22h-4.93q0,2.78,2.48,2.78a2.74,2.74,0,0,0,1.6-.46,3.21,3.21,0,0,0,.78-0.85l0.14,0.07a6.48,6.48,0,0,1-1,1.8,3.49,3.49,0,0,1-2.85,1.3,3.84,3.84,0,0,1-2.87-1.17,3.65,3.65,0,0,1-1.05-2.65,3.8,3.8,0,0,1,1.38-3,4,4,0,0,1,2.67-1,3.8,3.8,0,0,1,2.06.57,3.35,3.35,0,0,1,1.34,1.6A4.14,4.14,0,0,1,2140.77,1271.22Zm-2.65-.17a10.77,10.77,0,0,0-.1-1.8,1,1,0,0,0-.93-1q-0.84,0-1.13,1.37a7.1,7.1,0,0,0-.13,1.45h2.29Z" transform="translate(-2070.15 -1228.8)"/><path d="M2152.62,1271.22h-4.93q0,2.78,2.48,2.78a2.74,2.74,0,0,0,1.6-.46,3.21,3.21,0,0,0,.78-0.85l0.14,0.07a6.48,6.48,0,0,1-1,1.8,3.49,3.49,0,0,1-2.85,1.3,3.84,3.84,0,0,1-2.87-1.17,3.65,3.65,0,0,1-1.05-2.65,3.8,3.8,0,0,1,1.38-3,4,4,0,0,1,2.67-1,3.8,3.8,0,0,1,2.06.57,3.35,3.35,0,0,1,1.34,1.6A4.14,4.14,0,0,1,2152.62,1271.22ZM2150,1271a10.77,10.77,0,0,0-.1-1.8,1,1,0,0,0-.93-1q-0.84,0-1.13,1.37a7.1,7.1,0,0,0-.13,1.45H2150Z" transform="translate(-2070.15 -1228.8)"/><path d="M2158.16,1275.86v-1.19a3,3,0,0,1-2.27,1.19,2.36,2.36,0,0,1-1.64-.65,3.26,3.26,0,0,1-.85-1.39,4.52,4.52,0,0,1-.21-1.41,4.34,4.34,0,0,1,1.31-3.23,3.79,3.79,0,0,1,2.74-1.16,2.56,2.56,0,0,1,.93.2v-0.57a5,5,0,0,0-.09-1.15,1.12,1.12,0,0,0-1.18-.84l0-.15a30,30,0,0,0,3.92-1.05v8.32a3.62,3.62,0,0,0,.17,1.37,0.75,0.75,0,0,0,.49.37,2.89,2.89,0,0,0,.44.07v0.15Q2160.12,1275.2,2158.16,1275.86Zm0-1.44v-5.36a0.82,0.82,0,0,0-.25-0.65,0.75,0.75,0,0,0-.5-0.18,0.93,0.93,0,0,0-.57.2,1.34,1.34,0,0,0-.41.54,7.59,7.59,0,0,0-.47,3,6.72,6.72,0,0,0,.25,2.13,1.06,1.06,0,0,0,1,.81,1,1,0,0,0,.65-0.24A2.05,2.05,0,0,0,2158.16,1274.42Z" transform="translate(-2070.15 -1228.8)"/><path d="M2164.09,1271.94a0.74,0.74,0,0,0-.33.57,0.64,0.64,0,0,0,.46.65,4.15,4.15,0,0,0,1.31.15l1,0,1,0a3,3,0,0,1,1.89.55,1.93,1.93,0,0,1,.84,1.61,2.1,2.1,0,0,1-.28,1,2.76,2.76,0,0,1-.75.87,5,5,0,0,1-1.62.78,7.22,7.22,0,0,1-2,.28,7.32,7.32,0,0,1-2.22-.31,1.79,1.79,0,0,1-.79-0.47,1,1,0,0,1-.29-0.69q0-.85,1.54-1.39a2.61,2.61,0,0,1-1-.43,1.32,1.32,0,0,1-.6-1.09q0-1.16,1.72-2.09a2.36,2.36,0,0,1-.85-0.44,1.58,1.58,0,0,1-.57-1.23,1.64,1.64,0,0,1,.61-1.21,4.36,4.36,0,0,1,2.78-1c0-.13,0-0.22,0-0.28a2.87,2.87,0,0,1,.35-1.5,1.65,1.65,0,0,1,1.49-.84,1.36,1.36,0,0,1,.94.35,1.14,1.14,0,0,1,.39.88,1.18,1.18,0,0,1-.28.8,1,1,0,0,1-.78.36,1.24,1.24,0,0,1-.88-0.46,1,1,0,0,0-.57-0.39q-0.5,0-.5.94V1268h0.14a4.18,4.18,0,0,1,1.81.41,1.84,1.84,0,0,1,1.29,1.6,1.57,1.57,0,0,1-.23.79,2.09,2.09,0,0,1-.61.66,4.4,4.4,0,0,1-2.58.73A5.89,5.89,0,0,1,2164.09,1271.94Zm0.08,3.6a1,1,0,0,0-.44.84,1.43,1.43,0,0,0,.92,1.32,3.89,3.89,0,0,0,1.76.38,2.9,2.9,0,0,0,1.65-.42,1.15,1.15,0,0,0,.59-1,0.91,0.91,0,0,0-.45-0.81,2.25,2.25,0,0,0-1.18-.27l-0.86,0-0.81,0A7.9,7.9,0,0,1,2164.17,1275.54Zm1.66-7.32q-0.9,0-.9,1.76a3.87,3.87,0,0,0,.25,1.58,0.77,0.77,0,0,0,.76.47,0.73,0.73,0,0,0,.73-0.46,3.6,3.6,0,0,0,.18-1.32Q2166.85,1268.22,2165.83,1268.22Z" transform="translate(-2070.15 -1228.8)"/><path d="M2178.07,1271.22h-4.93q0,2.78,2.48,2.78a2.74,2.74,0,0,0,1.6-.46,3.2,3.2,0,0,0,.78-0.85l0.14,0.07a6.49,6.49,0,0,1-1,1.8,3.49,3.49,0,0,1-2.85,1.3,3.84,3.84,0,0,1-2.87-1.17,3.65,3.65,0,0,1-1.05-2.65,3.8,3.8,0,0,1,1.38-3,4,4,0,0,1,2.67-1,3.81,3.81,0,0,1,2.06.57,3.34,3.34,0,0,1,1.34,1.6A4.12,4.12,0,0,1,2178.07,1271.22Zm-2.65-.17a10.83,10.83,0,0,0-.1-1.8,1,1,0,0,0-.93-1q-0.84,0-1.13,1.37a7.14,7.14,0,0,0-.13,1.45h2.29Z" transform="translate(-2070.15 -1228.8)"/><path d="M2186.39,1268a4.09,4.09,0,0,1,2.7,1,3.84,3.84,0,0,1,0,5.86,4.33,4.33,0,0,1-5.51,0,3.67,3.67,0,0,1-1.36-2.92,3.63,3.63,0,0,1,1.36-2.94A4.28,4.28,0,0,1,2186.39,1268Zm-0.07.2a0.91,0.91,0,0,0-.8.48,7.64,7.64,0,0,0-.41,3.25,12.56,12.56,0,0,0,.24,2.83,1.27,1.27,0,0,0,.37.64,0.9,0.9,0,0,0,.62.24,0.92,0.92,0,0,0,.82-0.48,7.42,7.42,0,0,0,.41-3.19,12.57,12.57,0,0,0-.24-2.89A1,1,0,0,0,2186.32,1268.22Z" transform="translate(-2070.15 -1228.8)"/><path d="M2196.23,1268.21l-0.4.7h-1.24v4.85a6.73,6.73,0,0,0,.06,1.08,0.73,0.73,0,0,0,.45.57,2.9,2.9,0,0,0,.85.11v0.15h-5.18v-0.15a1.29,1.29,0,0,0,1-.33,1.35,1.35,0,0,0,.2-0.68q0-.17,0-0.75v-4.85h-0.87l1.69-2.15a10.88,10.88,0,0,1,1.69-1.82,2.14,2.14,0,0,1,1.33-.39,3.14,3.14,0,0,1,1.75.47,1.68,1.68,0,0,1,.89,1.44,1.05,1.05,0,0,1-.3.76,1.15,1.15,0,0,1-.86.33,1.29,1.29,0,0,1-.78-0.25,1.17,1.17,0,0,1-.46-0.77,6.32,6.32,0,0,1-.06-0.7,2.13,2.13,0,0,0-.14-0.81,0.47,0.47,0,0,0-.43-0.27,0.73,0.73,0,0,0-.62.4,2.08,2.08,0,0,0-.22,1.08v2h1.64Z" transform="translate(-2070.15 -1228.8)"/><path d="M2208.21,1275.66l-3.1-5v2.47a10.41,10.41,0,0,0,.07,1.54,0.9,0.9,0,0,0,.58.73,3,3,0,0,0,.73.13v0.15h-5.71v-0.15a1.45,1.45,0,0,0,1.12-.42,1.64,1.64,0,0,0,.25-0.86q0-.21,0-1.13v-4.82a10.46,10.46,0,0,0-.07-1.54,0.9,0.9,0,0,0-.58-0.73,3,3,0,0,0-.73-0.13v-0.15h5.71v0.15a1.47,1.47,0,0,0-1.12.41,1.69,1.69,0,0,0-.25.86q0,0.2,0,1.13v2.24q0.6-.62,1.55-1.73a6.26,6.26,0,0,0,.86-1.23,2.48,2.48,0,0,0,.29-1.11,0.63,0.63,0,0,0-.28-0.57v-0.15h4v0.15a7.55,7.55,0,0,0-2.54,1.1,11.4,11.4,0,0,0-2,1.67l2.13,3.19,1.34,2a3.31,3.31,0,0,0,2.46,1.69v0.15h-4.72Z" transform="translate(-2070.15 -1228.8)"/><path d="M2220.35,1271.22h-4.93q0,2.78,2.48,2.78a2.74,2.74,0,0,0,1.6-.46,3.2,3.2,0,0,0,.78-0.85l0.14,0.07a6.49,6.49,0,0,1-1,1.8,3.49,3.49,0,0,1-2.85,1.3,3.84,3.84,0,0,1-2.87-1.17,3.65,3.65,0,0,1-1.05-2.65,3.8,3.8,0,0,1,1.38-3,4,4,0,0,1,2.67-1,3.81,3.81,0,0,1,2.06.57,3.34,3.34,0,0,1,1.34,1.6A4.12,4.12,0,0,1,2220.35,1271.22Zm-2.65-.17a10.83,10.83,0,0,0-.1-1.8,1,1,0,0,0-.93-1q-0.84,0-1.13,1.37a7.14,7.14,0,0,0-.13,1.45h2.29Z" transform="translate(-2070.15 -1228.8)"/><path d="M2226.21,1272.83l1.14-2.43a9.12,9.12,0,0,0-.76-1.49,1.16,1.16,0,0,0-.46-0.44,2.06,2.06,0,0,0-.43-0.1v-0.15h4.69v0.15a0.62,0.62,0,0,0-.63.63,2.37,2.37,0,0,0,.21.79l0.42,0.94,1,2.1q0.41-.87.58-1.28a4.93,4.93,0,0,0,.44-1.93,1.55,1.55,0,0,0-.23-0.92,1,1,0,0,0-.54-0.33v-0.15h3.36v0.15q-1.42.35-2.94,3.5l-2,4.19-2.54-5.47-2.57,5.47-2.89-5.9a7.1,7.1,0,0,0-.68-1.21,1.51,1.51,0,0,0-.65-0.52,2,2,0,0,0-.41-0.07v-0.15h4.61v0.15a0.43,0.43,0,0,0-.42.46,2.76,2.76,0,0,0,.33,1Z" transform="translate(-2070.15 -1228.8)"/><path d="M2169.36,1255.83v0.36m-8.95-4.72c0,1.67-.84,2.72-2.18,2.72s-2.11-1.2-2.11-3.38c0-2.76,1-3.92,4.29-5v5.63Zm9.48,2a2.88,2.88,0,0,1-1.45.47,1.38,1.38,0,0,1-1.34-.76,5.09,5.09,0,0,1-.25-2.29v-8.35c0-2.07-.36-3.16-1.42-4a4.75,4.75,0,0,0-3.2-1,22.83,22.83,0,0,0-10.17,2.69c-2.25,1.24-3.31,2.54-3.31,4.07a2.44,2.44,0,0,0,2.54,2.54c2.07,0,3.52-1.45,3.85-3.74s0.33-2.51.65-3.16a2.7,2.7,0,0,1,2.47-1.45,1.88,1.88,0,0,1,1.63.87c0.36,0.58.51,1.67,0.51,4.14v1.89a53.37,53.37,0,0,0-6.39,2.22c-4,1.67-5.3,2.94-5.3,5.09,0,2.32,2.11,4,5.16,4a7.3,7.3,0,0,0,6.54-3.45c0.47,2.32,1.63,3.45,3.63,3.45s3.56-.8,6.07-2.91Zm-29.17-15.95a61.91,61.91,0,0,1-9.3,2.8l0.07,0.36a2.77,2.77,0,0,1,2.36,1.05c0.58,0.76.73,1.63,0.73,3.81v6c0,3.71-.33,4.18-2.91,4.29v0.36h12.24v-0.36c-2.58-.11-2.91-0.58-2.91-4.29V1247c0-3.23.11-4.1,0.65-5.09a1.31,1.31,0,0,1,1.13-.76,1.45,1.45,0,0,1,1.13.73,4.42,4.42,0,0,0,1.05,1.27,2.59,2.59,0,0,0,1.71.62,2.89,2.89,0,0,0,2.8-3.05,3.19,3.19,0,0,0-3.27-3.16c-2.36,0-4,1.71-5.48,5.56v-5.56Zm-17.29,0a61.92,61.92,0,0,1-9.3,2.8l0.07,0.36a2.77,2.77,0,0,1,2.36,1.05c0.58,0.76.73,1.63,0.73,3.81v6c0,3.71-.33,4.18-2.91,4.29v0.36h12.24v-0.36c-2.58-.11-2.91-0.58-2.91-4.29V1247c0-3.23.11-4.1,0.65-5.09a1.31,1.31,0,0,1,1.13-.76,1.45,1.45,0,0,1,1.13.73,4.42,4.42,0,0,0,1.05,1.27,2.59,2.59,0,0,0,1.71.62,2.89,2.89,0,0,0,2.8-3.05,3.19,3.19,0,0,0-3.27-3.16c-2.36,0-4,1.71-5.48,5.56v-5.56Zm-17.33,13.91c0,1.67-.84,2.72-2.18,2.72s-2.11-1.2-2.11-3.38c0-2.76,1-3.92,4.29-5v5.63Zm9.48,2a2.88,2.88,0,0,1-1.45.47,1.38,1.38,0,0,1-1.34-.76,5.09,5.09,0,0,1-.25-2.29v-8.35c0-2.07-.36-3.16-1.42-4a4.76,4.76,0,0,0-3.2-1,22.83,22.83,0,0,0-10.17,2.69c-2.25,1.24-3.31,2.54-3.31,4.07a2.44,2.44,0,0,0,2.54,2.54c2.07,0,3.52-1.45,3.85-3.74s0.33-2.51.65-3.16a2.7,2.7,0,0,1,2.47-1.45,1.88,1.88,0,0,1,1.63.87c0.36,0.58.51,1.67,0.51,4.14v1.89a53.41,53.41,0,0,0-6.39,2.22c-4,1.67-5.3,2.94-5.3,5.09,0,2.32,2.11,4,5.16,4a7.3,7.3,0,0,0,6.54-3.45c0.47,2.32,1.63,3.45,3.63,3.45s3.56-.8,6.07-2.91Zm-27.53-8.72,1.85-3.05c3.78-6,6.79-9,9.19-9.41V1232h-9.23v0.36c1.09,0.36,1.56,1.27,1.56,3.05a13.66,13.66,0,0,1-2.43,7l-1.24,2-4.14-6.87a6.85,6.85,0,0,1-1.34-3.45c0-1,.69-1.6,2-1.74V1232h-14.09v0.36c1.93,0.25,2.94,1.13,4.79,4.1l6,9.92V1250c0,3.41-.11,4.07-0.65,4.83s-1.13.91-2.72,1v0.36h13.91v-0.36c-1.6-.11-2.22-0.36-2.72-1s-0.65-1.45-.65-4.83v-5.19Z" transform="translate(-2070.15 -1228.8)"/><path d="M2248.1,1253.12a2.67,2.67,0,0,1-2.22,1.24c-2.18,0-3.13-2.11-3.13-7.16,0-6,1.24-9.2,3.53-9.2a1.8,1.8,0,0,1,1.82,2v13.08Zm0,3.53c4.11-1.34,5.6-1.82,9.12-2.76v-0.36c-2.29-.18-2.69-0.84-2.69-4.4V1228.8a82.07,82.07,0,0,1-9.6,2.54l0.07,0.4a2.59,2.59,0,0,1,2.36,1.05c0.58,0.76.73,1.6,0.73,3.78V1238a5.46,5.46,0,0,0-2.25-.47c-5.49,0-9.89,4.73-9.89,10.69,0,4.87,2.8,8.43,6.61,8.43,2,0,3.78-.91,5.52-2.91v2.91Zm-25.77-19.12a77.93,77.93,0,0,1-9.6,2.8l0.07,0.36a2.77,2.77,0,0,1,2.36,1.05c0.58,0.76.73,1.64,0.73,3.82v6c0,3.71-.33,4.18-2.91,4.29v0.36h11v-0.36c-1.53-.18-1.74-0.62-1.71-3.56v-10.69a4.22,4.22,0,0,1,2.76-1.27,1.87,1.87,0,0,1,1.56.91c0.33,0.62.4,1.27,0.4,4.18v6.87c0,2.94-.18,3.38-1.71,3.56v0.36h10.32v-0.36c-2-.18-2.22-0.58-2.18-3.56v-9.41c0-1.93-.22-3-0.84-3.78a4.43,4.43,0,0,0-3.71-1.53c-2.4,0-4.11.87-6.62,3.45v-3.45Zm-21.26,7.38c0-4.43,1.13-6.91,3.09-6.91,1.2,0,1.89.73,2.25,2.36a24.85,24.85,0,0,1,.25,4.54h-5.6Zm12.07,0.44a8.12,8.12,0,0,0-1.53-4.22,9,9,0,0,0-7.38-3.6,9.77,9.77,0,0,0-9.89,9.81,9.28,9.28,0,0,0,9.6,9.3,8.8,8.8,0,0,0,6.94-3.16,13.32,13.32,0,0,0,2.4-4.4l-0.33-.15a6.27,6.27,0,0,1-5.82,3.16c-4,0-6-2.25-6-6.76h12Zm-33.26-2.29H2181c2.18,0,3.2.29,4.07,1.2s1.38,2.69,1.38,5.16c0,4.4-1.31,6.32-4.33,6.32-1.89,0-2.25-.62-2.25-3.85v-8.83Zm0-.44v-10.25h0.87c1.82,0,2.73.25,3.45,0.94s1.27,2.18,1.27,4.18a6.56,6.56,0,0,1-.91,3.74c-0.65,1.05-1.53,1.38-3.74,1.38h-0.94Zm-10.54-10.69v0.36c1.6,0.11,2.25.36,2.73,1s0.65,1.42.65,4.83V1250c0,3.42-.11,4.07-0.65,4.83s-1.13.91-2.73,1v0.36h13.59c6.87,0,11.16-2.62,11.16-6.87,0-2.18-1.24-3.93-3.56-5.05-1.45-.73-3-1.09-6.61-1.53a19.31,19.31,0,0,0,4.94-.73c2.33-.8,3.6-2.36,3.6-4.36s-1.09-3.31-3.31-4.36-4.83-1.34-10.29-1.34h-9.52Z" transform="translate(-2070.15 -1228.8)"/></svg>