<svg id="_24_Grid_Col" data-name="24 Grid Col" xmlns="http://www.w3.org/2000/svg" width="113.4" height="15.58" viewBox="0 0 113.4 15.58"><title>logo-glenvill</title><rect x="35.11" y="14.76" width="7.29" height="0.63"/><polygon points="33.45 0.23 33.45 15.39 34.07 15.39 34.07 0.86 42.41 0.86 42.41 0.23 33.45 0.23"/><polygon points="35.12 7.23 41.75 7.23 41.75 6.6 35.73 6.6 35.73 2.44 42.41 2.44 42.41 1.81 35.12 1.81 35.12 7.23"/><polygon points="35.12 8.18 35.12 13.78 35.12 13.79 42.41 13.79 42.41 13.16 35.73 13.16 35.73 8.81 41.75 8.81 41.75 8.18 35.12 8.18"/><polygon points="59.35 0.23 59.35 15.39 59.98 15.39 59.98 0.86 59.98 0.23 59.35 0.23"/><rect x="48.43" y="0.23" width="0.62" height="15.16"/><rect x="82.52" y="0.23" width="0.62" height="15.16"/><rect x="84.19" y="0.23" width="0.62" height="15.16"/><path d="M610.67,1908.13l0.36-.54h0l-0.52-.35a8.72,8.72,0,0,0-2.08-1.15,7,7,0,0,0-2.41-.45,6,6,0,0,0-2.36.46,5.78,5.78,0,0,0-1.89,1.29,6,6,0,0,0-1.26,2,6.73,6.73,0,0,0-.46,2.51,6.47,6.47,0,0,0,.48,2.55,5.74,5.74,0,0,0,3.28,3.2,6.44,6.44,0,0,0,2.37.44,6.75,6.75,0,0,0,2.1-.31,6.46,6.46,0,0,0,1.78-.9v-3.66h-4.52v0.63h3.9v2.69a5.93,5.93,0,0,1-1.35.64,6.2,6.2,0,0,1-1.91.28,5.85,5.85,0,0,1-2.14-.4,5.12,5.12,0,0,1-2.93-2.85,5.9,5.9,0,0,1-.43-2.3,6.11,6.11,0,0,1,.41-2.28,5.35,5.35,0,0,1,1.12-1.77,5.16,5.16,0,0,1,1.69-1.15,5.34,5.34,0,0,1,2.11-.42,6.41,6.41,0,0,1,2.2.41,8.13,8.13,0,0,1,1.93,1.07Z" transform="translate(-598.3 -1904.07)"/><rect x="7.25" y="7.51" width="4.51" height="0.63"/><path d="M611.93,1906.25l-0.49-.36a12.51,12.51,0,0,0-1.13-.73,8.61,8.61,0,0,0-1.25-.58,7.75,7.75,0,0,0-1.41-.38,9.21,9.21,0,0,0-1.62-.13,7.85,7.85,0,0,0-2.84.53,7.56,7.56,0,0,0-4.22,4,8.42,8.42,0,0,0,0,6.55,7.38,7.38,0,0,0,1.76,2.44,7.72,7.72,0,0,0,2.51,1.52,8.37,8.37,0,0,0,2.92.52,8.63,8.63,0,0,0,2.94-.48,8.37,8.37,0,0,0,2.4-1.36l0.23-.19v-6h-0.62v5.73a7.72,7.72,0,0,1-2.23,1.26,7.94,7.94,0,0,1-2.73.44,7.72,7.72,0,0,1-2.7-.48,7.06,7.06,0,0,1-2.31-1.39,6.78,6.78,0,0,1-1.61-2.24,7.79,7.79,0,0,1,0-6,6.93,6.93,0,0,1,3.88-3.69,7.2,7.2,0,0,1,2.62-.49,8.63,8.63,0,0,1,1.52.12,7.23,7.23,0,0,1,1.3.35,8.08,8.08,0,0,1,1.16.54c0.34,0.2.68,0.41,1,.64h0l0.58,0.4Z" transform="translate(-598.3 -1904.07)"/><polygon points="77.56 0.23 77.2 1.09 77.19 1.09 71.77 13.98 72.11 14.79 77.86 1.1 78.23 0.23 77.56 0.23"/><polygon points="76.16 0.23 75.74 0.23 71.27 11.14 66.77 0.23 66.09 0.23 70.94 11.96 71.27 12.77 76.42 0.23 76.16 0.23"/><polygon points="64.26 0.23 70.64 15.39 71.31 15.39 64.93 0.23 64.26 0.23"/><rect x="19.69" y="0.23" width="0.62" height="15.16"/><polygon points="21.36 0.23 21.36 13.79 28.65 13.79 28.65 13.16 21.98 13.16 21.98 0.23 21.36 0.23"/><rect x="21.36" y="14.76" width="7.29" height="0.63"/><rect x="90.95" y="0.23" width="0.62" height="15.16"/><polygon points="92.61 0.23 92.61 13.79 99.9 13.79 99.9 13.16 93.23 13.16 93.23 0.23 92.61 0.23"/><rect x="92.61" y="14.76" width="7.29" height="0.63"/><rect x="104.44" y="0.23" width="0.62" height="15.16"/><polygon points="106.11 0.23 106.11 13.79 113.4 13.79 113.4 13.16 106.73 13.16 106.73 0.23 106.11 0.23"/><rect x="106.11" y="14.76" width="7.29" height="0.63"/><polygon points="57.69 0.23 57.69 10.47 50.07 0.64 50.07 1.66 58.31 12.29 58.31 11.28 58.31 0.23 57.69 0.23"/><polygon points="50.07 4.19 50.07 15.39 50.7 15.39 50.7 5 58.31 14.88 58.31 13.86 50.7 3.98 50.07 3.17 50.07 4.19"/></svg>