<svg id="_24_Grid_Col" data-name="24 Grid Col" xmlns="http://www.w3.org/2000/svg" width="31.7" height="31.7" viewBox="0 0 31.7 31.7"><defs><style>.cls-1{fill:#fff;}</style></defs><title>quotes</title><circle cx="15.85" cy="15.85" r="15.85"/><path class="cls-1" d="M2488.86,3112.56c0-4.42,3.29-8.37,9-10.17l0.31,0.62c-4,2.05-6,5.29-6.16,7.24l0.21,0.1a3.1,3.1,0,0,1,1.54-.36,3.54,3.54,0,0,1,3.49,3.7,3.91,3.91,0,0,1-3.85,4C2490.61,3117.7,2488.86,3115.59,2488.86,3112.56Z" transform="translate(-2482.71 -3094.75)"/><path class="cls-1" d="M2498.21,3112.56c0-4.42,3.29-8.37,9-10.17l0.31,0.62c-4,2.05-6,5.29-6.16,7.24l0.21,0.1a3.1,3.1,0,0,1,1.54-.36,3.54,3.54,0,0,1,3.49,3.7,3.91,3.91,0,0,1-3.85,4C2500,3117.7,2498.21,3115.59,2498.21,3112.56Z" transform="translate(-2482.71 -3094.75)"/></svg>