<svg id="_24_Grid_Col" data-name="24 Grid Col" xmlns="http://www.w3.org/2000/svg" width="15.58" height="15.58" viewBox="0 0 15.58 15.58"><defs><style>.cls-1{fill:#444;}</style></defs><title>social-instagram</title><ellipse class="cls-1" cx="7.8" cy="7.77" rx="2.31" ry="2.23"/><path class="cls-1" d="M7985.65,4646.79a3.57,3.57,0,0,1-7.14,0,3.36,3.36,0,0,1,.15-1h-1.05v4.85a0.46,0.46,0,0,0,.46.46h8a0.46,0.46,0,0,0,.46-0.46v-4.85h-1A3.36,3.36,0,0,1,7985.65,4646.79Z" transform="translate(-7974.28 -4638.9)"/><path class="cls-1" d="M7984.7,4644.5h1.3a0.52,0.52,0,0,0,.52-0.52v-1.24a0.52,0.52,0,0,0-.52-0.52h-1.3a0.52,0.52,0,0,0-.52.52V4644A0.52,0.52,0,0,0,7984.7,4644.5Z" transform="translate(-7974.28 -4638.9)"/><path class="cls-1" d="M7982.07,4638.9a7.79,7.79,0,1,0,7.79,7.79A7.79,7.79,0,0,0,7982.07,4638.9Zm4.27,13.53h-8.53a1.44,1.44,0,0,1-1.47-1.47v-8.53a1.44,1.44,0,0,1,1.47-1.47h8.53a1.44,1.44,0,0,1,1.47,1.47V4651A1.44,1.44,0,0,1,7986.34,4652.43Z" transform="translate(-7974.28 -4638.9)"/></svg>