<?xml version="1.0" encoding="utf-8"?>
<!-- Generator: Adobe Illustrator 19.2.1, SVG Export Plug-In . SVG Version: 6.00 Build 0)  -->
<svg version="1.1" id="_24_Grid_Col" xmlns="http://www.w3.org/2000/svg" xmlns:xlink="http://www.w3.org/1999/xlink" x="0px"
	 y="0px" viewBox="0 0 59.5 59.5" style="enable-background:new 0 0 59.5 59.5;" xml:space="preserve">
<title>telsa</title>
<path d="M29.8,0C13.3,0,0,13.3,0,29.8c0,16.4,13.3,29.8,29.8,29.8s29.8-13.3,29.8-29.8C59.5,13.3,46.2,0,29.8,0z M14.8,11.8
	L14.8,11.8c4-1.2,8.2-1.9,12.4-1.9c1.6,0,3.3,0,4.9,0c4.2,0,8.4,0.7,12.5,1.9l-0.9,1.3c-3.8-1.2-7.7-1.8-11.6-1.9
	c-1.6,0-3.2,0-4.8,0c-3.9,0-7.9,0.7-11.6,1.9L14.8,11.8C14.8,11.8,14.8,11.8,14.8,11.8L14.8,11.8z M18.5,46.3h-1.2h-0.1v3.3h-0.8
	v-3.3h-0.1h-1.2c-0.4-0.1-0.7-0.4-0.8-0.8h5C19.2,45.9,18.9,46.2,18.5,46.3z M24.9,49.7H22c-0.4-0.1-0.7-0.5-0.8-0.8h4.5
	C25.6,49.3,25.3,49.6,24.9,49.7z M24.9,48H22c-0.4-0.1-0.7-0.4-0.8-0.8h4.5C25.6,47.5,25.3,47.9,24.9,48z M24.9,46.4H22
	c-0.4-0.1-0.7-0.5-0.8-0.8h4.5C25.6,45.9,25.3,46.2,24.9,46.4z M32.2,47.1v2.5h-4.3c0.1-0.4,0.4-0.7,0.8-0.8h2.8V48H28v-2.5h4.3
	c-0.1,0.4-0.4,0.7-0.8,0.8h-2.7l0,0v0.8H32.2z M37.9,49.7L37.9,49.7l-3.5,0v-4.2h0.8v3.4h3.4C38.5,49.2,38.3,49.5,37.9,49.7z
	 M34.4,14.5L29.8,39l-4.6-24.5c-2.4,0-5,0.4-5,2.2c-1.5-0.4-2.8-1.3-3.7-2.5h-0.1c3.5-1.4,9.2-1.6,11.7-1.5l1.6,2l1.6-2
	c2.5-0.1,8.2,0.1,11.7,1.5c-1,1.2-2.3,2.1-3.7,2.5C39.3,14.9,36.8,14.5,34.4,14.5z M45.1,49.7h-0.8V48h-2.8v1.7h-0.8v-2.5h4.3V49.7z
	 M44.4,46.4h-2.9c-0.4-0.1-0.7-0.4-0.8-0.8h4.5C45.1,45.9,44.8,46.2,44.4,46.4z"/>
</svg>
