<?xml version="1.0" encoding="utf-8"?>
<!-- Generator: Adobe Illustrator 19.2.1, SVG Export Plug-In . SVG Version: 6.00 Build 0)  -->
<svg version="1.1" id="_24_Grid_Col" xmlns="http://www.w3.org/2000/svg" xmlns:xlink="http://www.w3.org/1999/xlink" x="0px"
	 y="0px" viewBox="0 0 59.5 59.5" style="enable-background:new 0 0 59.5 59.5;" xml:space="preserve">
<title>udia</title>
<g>
	<path d="M30.2,28.4L30.2,28.4c-0.5-0.4-1.1-0.6-1.8-0.5h-0.9v4.5h0.9c0.6,0.1,1.3-0.1,1.8-0.5c1-0.9,1-2.4,0.1-3.4
		C30.3,28.5,30.3,28.4,30.2,28.4z"/>
	<path d="M29.8,0C13.3,0,0,13.3,0,29.8c0,16.4,13.3,29.8,29.8,29.8s29.8-13.3,29.8-29.8C59.5,13.3,46.2,0,29.8,0z M47.2,17l3,2.9
		l4.1-0.8l-1.9,3.8l2.1,3.7L50.4,26l-2.8,3.1l-0.7-4.2L43,23.2l3.7-2L47.2,17z M16.7,6.5l4,1.2L24,5l0.1,4.2l3.5,2.3l-4,1.4L22.5,17
		L20,13.6l-4.2,0.2l2.4-3.5L16.7,6.5z M5.2,19.1L9.3,20l3-2.9l0.5,4.2l3.7,2l-3.8,1.8L12,29.1L9.1,26L5,26.6L7,22.9L5.2,19.1z
		 M16.1,43.3l-4.1-1l-3.1,2.8l-0.3-4.2l-3.6-2.1l3.9-1.6l0.9-4.1l2.7,3.2l4.2-0.5l-2.2,3.6L16.1,43.3z M25.1,30.7
		c0,0.7-0.2,1.3-0.7,1.8c-1,1.1-2.7,1.1-3.8,0.1c0,0,0,0-0.1-0.1c-0.5-0.5-0.7-1.2-0.7-1.8V27h0.9v3.7c0,0.4,0.1,0.9,0.4,1.2
		c0.7,0.7,1.8,0.7,2.5,0.1c0,0,0,0,0.1-0.1c0.3-0.3,0.4-0.8,0.4-1.2V27h0.9V30.7z M31.2,32.1c-0.2,0.2-0.4,0.4-0.6,0.6
		c-0.6,0.4-1.4,0.6-2.1,0.6h-1.9v0l0,0h0V27h1.9c0.8,0,1.5,0.2,2.1,0.6C32,28.7,32.3,30.7,31.2,32.1z M35.5,9.2L35.6,5l3.3,2.6
		l4-1.2l-1.5,3.9l2.4,3.5l-4.2-0.2L37,17l-1.1-4.1l-4-1.4L35.5,9.2z M33.9,33.3H33V27h0.9V33.3z M39.6,33.3l-0.6-1.6h-2.6l-0.7,1.6
		h-0.9l2.6-6.2h0.6l2.6,6.2H39.6z M50.7,45.1l-3.1-2.8l-4.1,1l1.7-3.9L43,35.8l4.2,0.5l2.7-3.2l0.9,4.1l3.9,1.6L51,40.9L50.7,45.1z"
		/>
	<polygon points="36.7,30.8 38.6,30.8 37.6,28.5 	"/>
</g>
</svg>
